<svg width="32" height="32" viewBox="0 0 32 32" fill="none" xmlns="http://www.w3.org/2000/svg">
<path d="M31.5 16C31.5 24.5625 24.5 31.5 16 31.5C7.4375 31.5 0.5 24.5625 0.5 16C0.5 7.5 7.4375 0.5 16 0.5C24.5 0.5 31.5 7.5 31.5 16ZM22.625 13.8125C22.9375 11.75 21.375 10.625 19.1875 9.9375L19.875 7.125L18.1875 6.6875L17.5 9.4375C17.0625 9.3125 16.625 9.1875 16.1875 9.125L16.875 6.375L15.125 5.9375L14.4375 8.75C14.0625 8.625 13.6875 8.5625 13.375 8.5V8.4375L11 7.875L10.5625 9.6875L11.8125 10C12.5 10.1875 12.625 10.625 12.5625 11L11.8125 14.1875C11.875 14.1875 11.9375 14.1875 12 14.25C11.9375 14.1875 11.875 14.1875 11.8125 14.1875L10.6875 18.625C10.625 18.875 10.375 19.1875 9.875 19.0625C9.9375 19.0625 8.6875 18.75 8.6875 18.75L7.8125 20.6875L10.0625 21.25C10.4375 21.3125 10.875 21.4375 11.25 21.5625L10.5625 24.375L12.25 24.8125L12.9375 22C13.375 22.125 13.875 22.25 14.3125 22.375L13.625 25.125L15.3125 25.5625L16 22.75C18.9375 23.3125 21.0625 23.0625 22 20.4375C22.75 18.3125 22 17.125 20.4375 16.3125C21.5625 16.0625 22.375 15.3125 22.625 13.8125ZM18.75 19.25C18.1875 21.375 14.625 20.25 13.5 19.9375L14.4375 16.1875C15.5625 16.5 19.25 17.0625 18.75 19.25ZM19.25 13.8125C18.75 15.6875 15.8125 14.75 14.875 14.5L15.6875 11.125C16.6875 11.3125 19.75 11.8125 19.25 13.8125Z" fill="white"/>
</svg>
