<svg width="159" height="40" viewBox="0 0 159 40" fill="none" xmlns="http://www.w3.org/2000/svg">
<path d="M35.2578 10V30L17.9385 40L0.618164 30V10L17.9385 0L35.2578 10ZM7.96191 14.2383V25.7617L17.9414 31.5234L27.9209 25.7617V14.2383L17.9414 8.47656L7.96191 14.2383ZM86.4854 14.9219C87.2452 14.9219 87.9862 15.0113 88.7061 15.1904C89.426 15.368 90.0757 15.6526 90.6582 16.043C91.2375 16.4318 91.7027 16.9462 92.0449 17.583C92.3888 18.2213 92.5634 18.9969 92.5635 19.915V29.751H88.9766V27.7207H88.8721C88.6434 28.1557 88.3414 28.5511 87.9561 28.9014C87.5721 29.2518 87.0992 29.527 86.541 29.7334C85.9827 29.9398 85.3317 30.042 84.5898 30.042H84.584L84.5859 30.04C83.6516 30.04 82.8165 29.874 82.0791 29.543C81.3418 29.2102 80.7609 28.7187 80.3369 28.0693C79.913 27.4198 79.7012 26.6132 79.7012 25.6533C79.7012 24.8342 79.8518 24.1508 80.1543 23.6084C80.4565 23.0661 80.8659 22.629 81.3857 22.293C81.9057 21.957 82.4933 21.7028 83.1543 21.5332C83.8132 21.3636 84.5062 21.2432 85.2295 21.1729C86.0855 21.0849 86.7751 21.0052 87.2998 20.9316C87.8245 20.858 88.2053 20.7397 88.4453 20.5781C88.6853 20.4165 88.8047 20.1778 88.8047 19.8643V19.7988C88.8047 19.143 88.6039 18.634 88.2041 18.2725C87.8027 17.9109 87.2294 17.7286 86.4873 17.7285C85.7015 17.7285 85.0773 17.8999 84.6133 18.2471C84.1512 18.591 83.8421 19.0082 83.6836 19.4961L80.1992 19.1152C80.4167 18.2258 80.8139 17.4677 81.3848 16.8438C81.956 16.2198 82.6742 15.743 83.5381 15.415C84.4021 15.087 85.3846 14.9219 86.4854 14.9219ZM54.2627 9.97949C55.37 9.97949 56.404 10.1376 57.3545 10.4512C58.3063 10.7647 59.1521 11.2211 59.8945 11.8193C60.6366 12.4176 61.2403 13.1489 61.709 14.0127C62.1762 14.8767 62.4794 15.8595 62.6201 16.9619H58.7559C58.6679 16.4035 58.4982 15.9041 58.2451 15.4609C57.991 15.0212 57.6712 14.6453 57.2842 14.335C56.8954 14.0246 56.4529 13.7895 55.9619 13.6279C55.4675 13.4664 54.9303 13.3858 54.3447 13.3857C53.3145 13.3857 52.4074 13.644 51.6201 14.1592C50.8347 14.6744 50.2193 15.424 49.7793 16.4111C49.3379 17.3966 49.1172 18.6001 49.1172 20.0127C49.1172 21.4255 49.3394 22.6533 49.7842 23.6357C50.2307 24.618 50.8419 25.3589 51.624 25.8613C52.4065 26.3637 53.309 26.6142 54.3281 26.6143C54.8959 26.6143 55.4242 26.5383 55.9121 26.3848C56.4001 26.2328 56.8408 26.0086 57.2295 25.7158C57.6167 25.4246 57.9429 25.0656 58.2051 24.6416C58.4675 24.2176 58.6519 23.7314 58.7559 23.1826H62.6201C62.5066 24.0978 62.2338 24.9683 61.8018 25.7891C61.3698 26.6082 60.794 27.3368 60.0723 27.9688C59.3523 28.6022 58.5038 29.0992 57.5312 29.4688C56.5569 29.8351 55.4677 30.0195 54.2646 30.0195V30.0244L54.2607 30.0215C52.541 30.0214 51.0002 29.6278 49.6436 28.8359C48.2851 28.0456 47.2132 26.9045 46.4277 25.4102C45.6423 23.9158 45.25 22.1167 45.25 20.0127C45.25 17.909 45.647 16.0821 46.4355 14.583C47.226 13.0855 48.301 11.9428 49.6641 11.1572C51.0258 10.3717 52.5588 9.97954 54.2627 9.97949ZM98.7705 29.752H95.0244V15.1084H98.7705V29.752ZM120.605 29.752H116.86V9.27344H120.605V29.752ZM126.813 29.752H123.067V15.1084H126.813V29.752ZM148.65 20.832H148.884L153.851 15.1074H158.197L152.651 21.4492L158.5 29.752H154.059V29.75L149.824 23.6689L148.65 24.9707V29.752H144.903V10.2334H148.65V20.832ZM109.368 14.9219C110.381 14.9219 111.266 15.1395 112.02 15.5762C112.775 16.0114 113.36 16.6438 113.776 17.4678C114.191 18.2933 114.399 19.2818 114.399 20.4336V29.7461H110.653V21.0625C110.653 20.1282 110.411 19.3935 109.927 18.8623C109.444 18.3314 108.776 18.0625 107.929 18.0625C107.353 18.0625 106.842 18.189 106.402 18.4434C105.961 18.6978 105.615 19.0578 105.36 19.5234C105.106 19.9921 104.982 20.5585 104.981 21.2334V21.2373H104.979V29.751H101.234V15.1055H104.914V17.6592H105.072C105.404 16.8209 105.93 16.1555 106.65 15.6611C107.37 15.1668 108.276 14.9219 109.368 14.9219ZM137.41 14.9219C138.423 14.9219 139.308 15.1394 140.063 15.5762C140.819 16.0114 141.404 16.6439 141.818 17.4678C142.232 18.2933 142.44 19.2818 142.44 20.4336V29.7461H138.695V21.0625C138.695 20.1282 138.453 19.3935 137.969 18.8623C137.486 18.3313 136.818 18.0626 135.971 18.0625C135.395 18.0625 134.884 18.1891 134.444 18.4434C134.003 18.6978 133.657 19.0578 133.402 19.5234C133.148 19.9921 133.022 20.5584 133.021 21.2334V29.751H129.276V15.1055H132.956V17.6592H133.114C133.445 16.821 133.972 16.1555 134.691 15.6611C135.411 15.1668 136.317 14.9219 137.41 14.9219ZM68.3301 17.6592H68.5146C68.8536 16.8129 69.3876 16.1439 70.1123 15.6543C70.8356 15.1663 71.7592 14.9199 72.876 14.9199C73.8886 14.92 74.7765 15.1375 75.5332 15.5742C76.2932 16.011 76.8833 16.6401 77.3008 17.4609C77.72 18.2801 77.9287 19.2739 77.9287 20.4355V29.7471H74.1689V21.0635C74.1689 20.1197 73.9282 19.385 73.4482 18.8555C72.9683 18.3277 72.2898 18.0635 71.418 18.0635C70.8323 18.0635 70.3167 18.19 69.8721 18.4443C69.426 18.6987 69.0758 19.059 68.8184 19.5244C68.5606 19.9932 68.4326 20.5602 68.4326 21.2354V21.2383L68.4346 21.2363V29.75H64.6885V10.2334H68.3301V17.6592ZM88.8281 22.877C88.7067 22.9649 88.5257 23.0439 88.292 23.1143C88.0553 23.1847 87.789 23.2487 87.4912 23.3047C87.1954 23.3606 86.9011 23.4103 86.6133 23.4551C86.3254 23.4983 86.068 23.533 85.8408 23.5586C85.3433 23.629 84.9042 23.7423 84.5234 23.8975C84.1428 24.0558 83.8434 24.2687 83.626 24.5391C83.4083 24.8094 83.2979 25.1505 83.2979 25.5615C83.2979 26.1551 83.5143 26.6049 83.9463 26.9121C84.3783 27.2177 84.9305 27.3701 85.6025 27.3701H85.6035L85.6055 27.3682C86.2519 27.3681 86.815 27.24 87.2949 26.9824C87.7749 26.7248 88.1514 26.3812 88.4219 25.9492C88.692 25.5173 88.8281 25.0387 88.8281 24.5156V22.877ZM98.8018 13.0186H95.0566V9.27344H98.8018V13.0186ZM126.846 9.27344V13.0186H123.1V9.27344H126.846Z" fill="white"/>
</svg>
