<svg width="160" height="48" viewBox="0 0 160 48" fill="none" xmlns="http://www.w3.org/2000/svg">
<path d="M21.4938 0.0163023L28.5133 1.74775C28.6167 1.77185 28.7119 1.82392 28.7878 1.89814C28.8635 1.97235 28.9177 2.06592 28.944 2.16865L30.7594 9.25361C30.7875 9.37512 30.7783 9.5154 30.7223 9.62763C30.6942 9.71186 30.6472 9.80626 30.5817 9.87177L18.7419 21.7106L24.7692 23.1989C24.8726 23.223 24.9677 23.275 25.0436 23.3493C25.1195 23.4235 25.1735 23.517 25.1999 23.6198L26.7721 29.7409L38.6208 17.8923C38.6826 17.8335 38.7568 17.7889 38.8376 17.7614C38.9182 17.734 39.0038 17.7243 39.0885 17.7331C39.1352 17.7331 39.1917 17.7423 39.2477 17.7517L46.2672 19.4831C46.3707 19.5072 46.4657 19.5592 46.5417 19.6335C46.6175 19.7077 46.6715 19.8012 46.6979 19.904L48.5133 26.989H48.5417C48.5697 27.1106 48.5607 27.2516 48.5045 27.364C48.4765 27.4481 48.4293 27.5417 48.3639 27.6071L28.1481 47.8229C28.0265 47.9444 27.8768 48.0006 27.7272 48.0007H27.6803C27.6335 48.0007 27.5773 47.9999 27.5212 47.9811L20.651 46.0065C20.4547 45.9503 20.3048 45.8006 20.2487 45.6042L18.3581 39.0065L11.7604 37.1159C11.564 37.0598 11.4143 36.9099 11.3581 36.7136L9.46744 30.1433L2.89713 28.2526C2.70066 28.1965 2.55096 28.0467 2.49478 27.8503L0.528963 21.0085C0.463581 20.812 0.510311 20.6152 0.641267 20.4655L0.697908 20.3815L20.8952 0.194037C20.9231 0.166171 20.96 0.147206 20.9879 0.128607C21.0249 0.100856 21.09 0.0640322 21.0915 0.0631773C21.2159 0.000532726 21.3583 -0.0161246 21.4938 0.0163023ZM21.9147 45.1462L26.8473 46.5593L25.5553 41.5056L21.9147 45.1462ZM26.5104 40.5407L27.987 46.2888L38.0407 36.236L32.4254 34.6257L26.5104 40.5407ZM21.0915 44.3132L24.7506 40.653L19.6803 39.3991L21.0915 44.3132ZM19.9587 38.2673L25.7145 39.6804L31.6012 33.7936L30.0016 28.2243L19.9587 38.2673ZM135.975 31.8366C136.082 31.8369 136.188 31.8653 136.281 31.9177C136.374 31.9701 136.453 32.0452 136.508 32.1364L138.062 34.7009L138.044 34.7194C138.268 35.0938 138.268 35.5619 138.044 35.9362L136.5 38.5476C136.397 38.7441 136.19 38.8561 135.965 38.8561C135.741 38.8467 135.545 38.7254 135.432 38.529L133.991 35.9177C133.794 35.562 133.794 35.1219 133.991 34.7663L135.432 32.1647C135.483 32.0669 135.56 31.9842 135.654 31.9265C135.748 31.869 135.855 31.8378 135.965 31.8366H135.975ZM12.3776 36.0769L17.9557 37.6774L16.4772 31.9216L10.778 30.5173L12.3776 36.0769ZM17.6188 31.6501L19.0983 37.406V37.3962L25.3688 31.1257L19.7526 29.5163L17.6188 31.6501ZM65.1823 18.4343C66.8576 18.4343 68.2522 18.7908 69.5251 19.5114C70.7979 20.2321 71.7902 21.2336 72.5202 22.5251C73.25 23.8165 73.6149 25.3512 73.6149 27.1198C73.6149 27.1901 73.6153 27.2723 73.6129 27.3649L73.5797 27.9802C73.5727 28.0772 73.5635 28.1685 73.5495 28.2526H60.446C60.5508 28.8295 60.7444 29.3606 61.027 29.8435C61.4775 30.6168 62.1448 31.2414 62.946 31.6403C63.7789 32.0708 64.743 32.2858 65.8473 32.2858C66.783 32.2858 67.6251 32.1268 68.3737 31.8181C69.1224 31.5092 69.787 31.0504 70.3766 30.4421L72.5016 32.8757C71.7211 33.7586 70.7429 34.445 69.6471 34.8786C68.5147 35.3372 67.213 35.571 65.7624 35.571L65.7721 35.5622C63.919 35.5622 62.2998 35.1873 60.9147 34.4479C59.5296 33.7086 58.453 32.6979 57.695 31.4157C56.9277 30.1337 56.5534 28.6644 56.5534 26.9987C56.5534 25.3328 56.9283 23.8536 57.6676 22.5808C58.3932 21.3109 59.4507 20.2624 60.7272 19.5485C62.0281 18.8092 63.5071 18.4343 65.1823 18.4343ZM113.654 18.4343C115.329 18.4343 116.723 18.7909 117.996 19.5114C119.269 20.2321 120.261 21.2335 120.991 22.5251C121.721 23.8166 122.087 25.3511 122.087 27.1198C122.087 27.2602 122.086 27.4479 122.067 27.6726C122.058 27.8877 122.039 28.0843 122.02 28.2526H108.908C109.013 28.8295 109.206 29.3606 109.489 29.8435C109.939 30.6167 110.606 31.2414 111.407 31.6403C112.24 32.0708 113.204 32.2858 114.308 32.2858C115.244 32.2858 116.087 32.1269 116.836 31.8181C117.584 31.5092 118.249 31.0504 118.839 30.4421L120.963 32.8757C120.182 33.7586 119.204 34.445 118.108 34.8786C116.976 35.3371 115.675 35.571 114.224 35.571L114.243 35.5622C112.381 35.5622 110.77 35.1873 109.385 34.4479C108 33.7086 106.925 32.6978 106.167 31.4157C105.399 30.1336 105.024 28.6645 105.024 26.9987C105.024 25.3328 105.399 23.8536 106.138 22.5808C106.864 21.3107 107.922 20.2624 109.199 19.5485C110.5 18.8092 111.979 18.4343 113.654 18.4343ZM80.2135 18.781H84.7057V21.9069H80.2135V29.8435C80.2135 30.639 80.4193 31.2473 80.8405 31.6872C81.2616 32.1271 81.8418 32.3425 82.5905 32.3425C83.4515 32.3425 84.1539 32.1087 84.7155 31.6501L85.8385 34.4294C85.3612 34.8038 84.7804 35.085 84.1159 35.2722C83.4516 35.4592 82.7779 35.5524 82.0856 35.5524V35.5622C80.2514 35.5622 78.838 35.0845 77.8366 34.1394C76.8352 33.1941 76.3386 31.7997 76.3385 29.9655V21.9069H73.5866V18.781H76.3385V14.9724H80.2135V18.781ZM133.42 22.1686C133.274 22.1481 133.127 22.1324 132.98 22.1218C132.84 22.1124 132.699 22.1032 132.578 22.1032C131.081 22.1032 129.892 22.534 129.012 23.3854C128.142 24.2371 127.702 25.548 127.702 27.2888V35.3464H123.827V18.6501H127.551V21.0778C128.022 20.3512 128.658 19.7687 129.452 19.3337C130.537 18.7348 131.857 18.4441 133.42 18.444V22.1686ZM158.54 35.3376H154.666V18.6501H158.54V35.3376ZM149.471 11.9304C150.164 11.9304 150.81 12.0048 151.427 12.1452C152.036 12.2856 152.56 12.5195 152.971 12.8376L151.877 15.739C151.605 15.5518 151.278 15.4022 150.913 15.2712C150.538 15.1402 150.154 15.0847 149.752 15.0847C148.947 15.0847 148.32 15.3093 147.908 15.7585C147.496 16.2077 147.281 16.8718 147.281 17.7419V18.781H151.885V21.9069H147.375V35.3376H143.509V21.9069H140.767V18.781H143.509V17.7517C143.509 15.9828 144.024 14.569 145.053 13.5114C146.083 12.454 147.562 11.9304 149.471 11.9304ZM91.0885 20.5974C91.5582 20.0768 92.1261 19.6424 92.7917 19.2956C93.9054 18.7153 95.1974 18.4255 96.6481 18.4255V18.4343C98.0051 18.4343 99.1938 18.6969 100.223 19.2116C101.253 19.7357 102.076 20.5406 102.694 21.6169C103.312 22.7025 103.611 24.0876 103.611 25.7722V35.3278H99.7086V26.2683C99.7086 24.7896 99.3719 23.6848 98.6794 22.9548C97.9868 22.2248 97.0127 21.8601 95.7399 21.8601C94.8228 21.8601 94.0082 22.0472 93.3063 22.4216C92.6045 22.7959 92.0523 23.3581 91.6686 24.0974C91.285 24.8366 91.0886 25.7724 91.0885 26.8952V35.3278H87.2135V12.1452H91.0885V20.5974ZM33.3795 33.6813L38.3122 35.0944L37.0202 30.0397L33.3795 33.6813ZM37.9753 29.0856L39.4538 34.8415L46.8571 27.4294L41.2419 25.819L37.9753 29.0856ZM32.5465 32.8483V32.8386L36.2067 29.1794L31.1335 27.9255L32.5465 32.8483ZM11.0768 29.3757L16.8327 30.7888L18.9294 28.6921L17.3288 23.1237L11.0768 29.3757ZM20.6979 28.571L25.6305 29.9841L24.3385 24.9304L20.6979 28.571ZM4.16959 27.4011L9.10221 28.8142L7.81119 23.7604L4.16959 27.4011ZM14.7272 16.8249L8.76529 22.7868L10.2438 28.5427L20.3522 18.4352L14.737 16.8249H14.7272ZM31.4235 26.8024L37.1794 28.2155L40.4176 24.9772L38.818 19.4079L31.4235 26.8024ZM19.8747 27.7468V27.738L23.5338 24.0788L18.4616 22.8239L19.8747 27.7468ZM3.34635 26.5681L7.00553 22.9089L1.93521 21.654L3.34635 26.5681ZM41.5504 24.6774L47.1286 26.278L45.6501 20.5222L39.9499 19.1179L41.5504 24.6774ZM113.634 21.6267C112.68 21.6267 111.856 21.8317 111.117 22.2341C110.378 22.6365 109.807 23.217 109.414 23.9655C109.145 24.4767 108.967 25.0411 108.88 25.6599H118.35C118.274 25.0439 118.091 24.4748 117.809 23.9567C117.407 23.2174 116.845 22.6459 116.133 22.2341C115.422 21.8224 114.589 21.6267 113.634 21.6267ZM65.1735 21.6267C64.2191 21.6267 63.3952 21.8318 62.6559 22.2341C61.9166 22.6365 61.3449 23.2169 60.9518 23.9655C60.6835 24.4767 60.5056 25.041 60.4176 25.6599H69.8844C69.8079 25.0438 69.6293 24.4749 69.3473 23.9567C68.9612 23.2372 68.3811 22.6399 67.6725 22.2341C66.9707 21.8317 66.128 21.6267 65.1735 21.6267ZM2.2233 20.5124L7.97916 21.9255L13.9128 15.9919L12.3122 10.4235L2.2233 20.5124ZM15.6823 15.8796L20.6139 17.2927L19.3229 12.239L15.6823 15.8796ZM20.277 11.2751L21.7555 17.031V17.0222L29.112 9.66572L23.4967 8.05536L20.277 11.2751ZM156.612 11.1999C157.342 11.1999 157.941 11.4159 158.409 11.8464C158.877 12.2769 159.111 12.8197 159.111 13.4841C159.111 14.1484 158.877 14.7193 158.419 15.1872C157.96 15.6552 157.351 15.8893 156.612 15.8893V15.9079C155.882 15.9079 155.283 15.674 154.815 15.2155C154.347 14.7569 154.113 14.195 154.113 13.5212C154.113 12.8941 154.347 12.3509 154.815 11.8923C155.517 11.2046 155.882 11.1999 156.612 11.1999ZM14.8581 15.0563V15.0466L18.5172 11.3874L13.445 10.1335L14.8581 15.0563ZM13.735 8.99189L19.4909 10.405L22.6735 7.22236L21.0729 1.654L13.735 8.99189ZM23.8053 6.93232L29.3835 8.5329L27.9049 2.77704L22.2047 1.37372L23.8053 6.93232Z" fill="white"/>
</svg>
