<?xml version="1.0" encoding="UTF-8"?>
<svg id="ARTWORK" xmlns="http://www.w3.org/2000/svg" viewBox="0 0 791.86 833.73">
  <defs>
    <style>
      .cls-1 {
        fill: #00e676;
      }

      .cls-1, .cls-2 {
        stroke: #000;
        stroke-linecap: round;
        stroke-linejoin: round;
      }

      .cls-2 {
        fill: #fff;
      }
    </style>
  </defs>
  <g>
    <path class="cls-2" d="M233.1,67.64c0-17.19-11.36-34.37-34.06-47.48-45.41-26.22-119.06-26.22-164.47,0C11.86,33.27.5,50.46.5,67.64v161.91c0,17.19,11.36,34.37,34.06,47.48,45.41,26.22,119.06,26.22,164.47,0,22.71-13.11,34.06-30.29,34.06-47.48V67.64Z"/>
    <path class="cls-2" d="M199.04,182.07c-45.42-26.22-119.06-26.22-164.48,0-45.42,26.22-45.42,68.74,0,94.96,45.42,26.22,119.06,26.22,164.48,0s45.42-68.74,0-94.96Z"/>
    <circle class="cls-1" cx="116.8" cy="175.84" r="53.72"/>
  </g>
  <g>
    <path class="cls-2" d="M233.1,336.99c0-17.19-11.36-34.37-34.06-47.48-45.41-26.22-119.06-26.22-164.47,0C11.86,302.61.5,319.8.5,336.99v429.1c0,17.19,11.36,34.37,34.06,47.48,45.41,26.22,119.06,26.22,164.47,0,22.71-13.11,34.06-30.29,34.06-47.48v-429.1Z"/>
    <path class="cls-2" d="M199.04,718.6c-45.42-26.22-119.06-26.22-164.48,0-45.42,26.22-45.42,68.74,0,94.96,45.42,26.22,119.06,26.22,164.48,0,45.42-26.22,45.42-68.74,0-94.96Z"/>
  </g>
  <g>
    <path class="cls-2" d="M791.36,67.64c0-17.19-11.36-34.37-34.06-47.48-45.41-26.22-119.06-26.22-164.47,0-22.71,13.11-34.06,30.29-34.06,47.48v295.57c0,17.19,11.36,34.37,34.06,47.48,45.41,26.22,119.06,26.22,164.47,0,22.71-13.11,34.06-30.29,34.06-47.48V67.64Z"/>
    <path class="cls-2" d="M757.3,315.73c-45.42-26.22-119.06-26.22-164.48,0-45.42,26.22-45.42,68.74,0,94.96,45.42,26.22,119.06,26.22,164.48,0,45.42-26.22,45.42-68.74,0-94.96Z"/>
    <circle class="cls-1" cx="675.06" cy="269.2" r="53.72"/>
  </g>
  <g>
    <path class="cls-2" d="M791.36,470.64c0-17.19-11.36-34.37-34.06-47.48-45.41-26.22-119.06-26.22-164.47,0-22.71,13.11-34.06,30.29-34.06,47.48v295.44c0,17.19,11.36,34.37,34.06,47.48,45.41,26.22,119.06,26.22,164.47,0,22.71-13.11,34.06-30.29,34.06-47.48v-295.44Z"/>
    <path class="cls-2" d="M757.3,718.6c-45.42-26.22-119.06-26.22-164.48,0-45.42,26.22-45.42,68.74,0,94.96s119.06,26.22,164.48,0c45.42-26.22,45.42-68.74,0-94.96Z"/>
  </g>
  <g>
    <path class="cls-2" d="M512.23,67.76c0-17.19-11.36-34.37-34.06-47.48-45.41-26.22-119.06-26.22-164.47,0-22.71,13.11-34.06,30.29-34.06,47.48v456.6c0,17.19,11.36,34.37,34.06,47.48,45.41,26.22,119.06,26.22,164.47,0,22.71-13.11,34.06-30.29,34.06-47.48V67.76Z"/>
    <path class="cls-2" d="M478.17,476.88c-45.42-26.22-119.06-26.22-164.48,0-45.42,26.22-45.42,68.74,0,94.96,45.42,26.22,119.06,26.22,164.48,0,45.42-26.22,45.42-68.74,0-94.96Z"/>
    <circle class="cls-1" cx="395.93" cy="564.65" r="53.72"/>
  </g>
  <g>
    <path class="cls-2" d="M512.23,631.67c0-17.19-11.36-34.37-34.06-47.48-45.41-26.22-119.06-26.22-164.47,0-22.71,13.11-34.06,30.29-34.06,47.48v134.41c0,17.19,11.36,34.37,34.06,47.48,45.41,26.22,119.06,26.22,164.47,0,22.71-13.11,34.06-30.29,34.06-47.48v-134.41Z"/>
    <path class="cls-2" d="M478.17,718.6c-45.42-26.22-119.06-26.22-164.48,0-45.42,26.22-45.42,68.74,0,94.96,45.42,26.22,119.06,26.22,164.48,0,45.42-26.22,45.42-68.74,0-94.96Z"/>
  </g>
  <path class="cls-2" d="M233.1,67.65v161.37c-.23-17.01-11.59-33.97-34.06-46.94-45.42-26.22-119.06-26.22-164.48,0C12.09,195.05.73,212.01.5,229.02V67.65c0-17.19,11.36-34.37,34.07-47.48,45.41-26.22,119.05-26.22,164.47,0,22.71,13.11,34.06,30.29,34.06,47.48Z"/>
  <path class="cls-2" d="M791.36,67.65v295.02c-.23-17-11.59-33.96-34.06-46.94-45.42-26.22-119.06-26.22-164.48,0-22.47,12.98-33.83,29.94-34.06,46.94V67.65c0-17.19,11.36-34.37,34.06-47.48,45.42-26.22,119.06-26.22,164.47,0,22.71,13.11,34.07,30.29,34.07,47.48Z"/>
</svg>