<?xml version="1.0" encoding="UTF-8"?>
<svg id="ARTWORK" xmlns="http://www.w3.org/2000/svg" viewBox="0 0 806.09 833.37">
  <defs>
    <style>
      .cls-1 {
        fill: #00e676;
      }

      .cls-1, .cls-2 {
        stroke: #000;
        stroke-linecap: round;
        stroke-linejoin: round;
      }

      .cls-2 {
        fill: #fff;
      }
    </style>
  </defs>
  <path class="cls-2" d="M60.5,153.88c46.94-41.42,121.26-51.83,211.82-21.39,181.11,60.87,358.58,262.02,396.43,449.3,18.92,93.64-.67,166.09-47.6,207.5l129.7-114.44c46.94-41.42,66.53-113.86,47.6-207.5-37.84-187.28-215.32-388.43-396.43-449.3C311.46-12.38,237.14-1.97,190.2,39.45L60.5,153.88Z"/>
  <path class="cls-2" d="M223.39,654.42c-28.82-32.19-36.38-83.43-15.83-146.08,41.1-125.3,179.03-248.8,308.1-275.86,64.53-13.53,114.63-.38,143.45,31.81l-79.63-88.94c-28.82-32.19-78.92-45.34-143.45-31.81-129.06,27.06-267,150.56-308.1,275.86-20.55,62.65-12.99,113.89,15.83,146.08l79.63,88.94Z"/>
  <g>
    <path class="cls-2" d="M192.67,416.65c5.87-29.93,31.52-56,75.56-71.08,88.08-30.17,216.35-5.03,286.52,56.16,35.08,30.59,49,64.41,43.13,94.35l16.21-82.71c5.87-29.93-8.04-63.75-43.13-94.35-70.17-61.19-198.44-86.33-286.52-56.16-44.04,15.09-69.69,41.15-75.56,71.08l-16.21,82.71Z"/>
    <path class="cls-2" d="M192.01,420c-5.87,29.93,8.04,63.75,43.13,94.35,70.17,61.19,198.44,86.33,286.52,56.16,44.04-15.09,69.69-41.15,75.56-71.08l16.21-82.71c-5.87,29.93-31.52,56-75.56,71.08-88.08,30.17-216.35,5.03-286.52-56.16-35.08-30.59-49-64.41-43.13-94.35l-16.21,82.71Z"/>
  </g>
  <path class="cls-2" d="M226.61,658.02c28.82,32.19,78.92,45.34,143.45,31.81,129.06-27.06,267-150.56,308.1-275.86,20.55-62.65,12.99-113.89-15.83-146.08l-79.63-88.94c28.82,32.19,36.38,83.43,15.83,146.08-41.1,125.3-179.03,248.8-308.1,275.86-64.53,13.53-114.63.38-143.45-31.81l79.63,88.94Z"/>
  <path class="cls-2" d="M55.25,158.51C8.31,199.93-11.27,272.38,7.65,366.01c37.84,187.28,215.32,388.43,396.43,449.3,90.55,30.44,164.88,20.03,211.82-21.39l129.7-114.44c-46.94,41.42-121.26,51.83-211.82,21.39-181.11-60.87-358.58-262.02-396.43-449.3-18.92-93.64.67-166.09,47.6-207.5L55.25,158.51Z"/>
  <circle class="cls-1" cx="403.04" cy="416.69" r="53.72"/>
</svg>