<?xml version="1.0" encoding="UTF-8"?>
<svg id="ARTWORK" xmlns="http://www.w3.org/2000/svg" viewBox="0 0 722.08 847.03">
  <defs>
    <style>
      .cls-1 {
        fill: #00e676;
      }

      .cls-1, .cls-2 {
        stroke: #000;
        stroke-linecap: round;
        stroke-linejoin: round;
      }

      .cls-2 {
        fill: #fff;
      }
    </style>
  </defs>
  <g>
    <g>
      <polygon class="cls-2" points="651.8 201.94 372.67 40.79 372.67 470.52 651.8 631.67 651.8 201.94"/>
      <polygon class="cls-2" points="372.67 40.79 442.45 .5 721.58 161.65 651.8 201.94 372.67 40.79"/>
      <polygon class="cls-2" points="721.58 161.65 651.8 201.94 651.8 631.67 721.58 591.38 721.58 161.65"/>
    </g>
    <g>
      <polygon class="cls-2" points="465.71 309.37 186.59 148.22 186.59 577.95 465.71 739.1 465.71 309.37"/>
      <polygon class="cls-2" points="186.59 148.22 256.37 107.93 535.5 269.08 465.71 309.37 186.59 148.22"/>
      <polygon class="cls-2" points="535.5 269.08 465.71 309.37 465.71 739.1 535.5 698.81 535.5 269.08"/>
    </g>
    <g>
      <polygon class="cls-2" points="279.63 416.8 .5 255.65 .5 685.39 279.63 846.53 279.63 416.8"/>
      <polygon class="cls-2" points=".5 255.65 70.28 215.37 349.41 376.52 279.63 416.8 .5 255.65"/>
      <polygon class="cls-2" points="349.41 376.52 279.63 416.8 279.63 846.53 349.41 806.25 349.41 376.52"/>
    </g>
    <line class="cls-2" x1=".5" y1="685.39" x2="279.63" y2="524.24"/>
  </g>
  <circle class="cls-1" cx="93.54" cy="631.67" r="53.72"/>
  <path class="cls-1" d="M279.63,497.37v107.44c-29.67,0-53.72-24.05-53.72-53.72s24.05-53.72,53.72-53.72Z"/>
  <path class="cls-1" d="M279.63,650.38v96.86c-7.04,3.39-14.93,5.29-23.26,5.29-29.67,0-53.72-24.05-53.72-53.72s24.05-53.72,53.72-53.72c8.33,0,16.22,1.9,23.26,5.29Z"/>
</svg>