<svg width="167" height="29" viewBox="0 0 167 29" fill="none" xmlns="http://www.w3.org/2000/svg">
<path d="M91.7695 0.585938C92.3508 0.58598 94.0728 0.977014 94.6924 1.1709C100.91 3.10829 101.502 10.9031 95.8643 13.875C98.5464 15.0701 100.938 16.4794 101.212 19.7188C102.185 31.2851 85.6099 27.7635 78.7344 28.3418L78.1582 28.083V12.2871H90.7676C91.4123 12.287 93.2516 11.553 93.7764 11.1201C95.0924 10.0286 95.2181 7.5615 94.0908 6.28613C93.5331 5.65601 91.9183 4.9327 91.1016 4.93262H78.1582V0.585938H91.7695ZM28.7246 28.334H23.7979L14.4443 6.43555L4.9834 28.3076L0 28.334V28.167L12.1914 0.419922H16.7002L28.7246 28.334ZM132.436 16.4668H116.235V23.9883H132.436V28.334H111.894V12.1211H132.436V16.4668ZM143.625 0.586914C148.311 0.894405 153.615 0.0924567 158.218 0.774414C164.043 1.637 167.409 6.29736 165.751 12.1191C164.871 15.2062 162.518 16.8008 159.655 17.8906L166.838 28.334H161.411L154.396 18.6396H148.468V28.083L148.217 28.334H143.625V14.293H156.901C157.173 14.293 158.45 13.814 158.767 13.6533C161.848 12.0888 162.126 7.46546 159.043 5.79883C158.706 5.61663 157.372 5.10059 157.068 5.10059H143.625V0.586914ZM52.3564 13.6211L60.873 0.585938H65.9668V28.333H61.124V8.60938L52.3545 21.4814L43.5889 8.77637V28.083L43.3379 28.333H38.7451V0.585938H43.8389L52.3564 13.6211ZM83.0029 23.9873H92.2705C92.9152 23.9873 94.7559 23.2532 95.2803 22.8203C97 21.3927 96.6505 18.4278 94.8086 17.2695C94.4125 17.0205 93.0076 16.4661 92.6064 16.4658H83.0029V23.9873ZM132.436 4.93262H111.894V0.585938H132.436V4.93262Z" fill="#121514"/>
</svg>
