<svg width="173" height="33" viewBox="0 0 173 33" fill="none" xmlns="http://www.w3.org/2000/svg">
<path d="M13.5642 23.0228C13.8328 22.774 14.2351 22.7741 14.5037 23.0228L17.5164 25.8949C17.7463 26.1055 17.8034 26.4307 17.6502 26.6986L14.6385 32.1752C14.3699 32.6347 13.6984 32.6347 13.449 32.1752L10.4373 26.6986C10.3032 26.4306 10.3416 26.0863 10.5525 25.8949L13.5642 23.0228ZM71.9588 19.059V6.09607H76.5437V27.14H72.5916L62.3865 13.7748V27.14H57.8016V6.09607H62.0789L71.9588 19.059ZM94.7869 10.7885H89.2234V27.14H84.5428V10.7885H78.8836V6.07752H94.7869V10.7885ZM164.04 24.7465H173.037V27.14H161.699V6.07752H164.04V24.7465ZM105.184 6.05799C106.067 6.05799 106.911 6.23053 107.679 6.55603C108.465 6.90069 109.156 7.36052 109.731 7.93494C110.307 8.52846 110.786 9.19882 111.112 9.98377C111.438 10.7687 111.611 11.592 111.649 12.4535C111.649 13.3342 111.477 14.1769 111.151 14.9428C110.806 15.7278 110.345 16.4172 109.769 16.9916C109.175 17.5659 108.503 18.044 107.717 18.3695C106.949 18.6949 106.106 18.8675 105.223 18.8676H99.6219V27.1205H97.2615V6.05799H105.184ZM142.957 22.7933C143.59 23.3295 144.3 23.7696 145.087 24.0951C146.103 24.5354 147.196 24.7464 148.328 24.7465C149.46 24.7465 150.553 24.5163 151.57 24.0951C152.28 23.7888 152.913 23.4061 153.508 22.9467L155.1 24.5551C154.314 25.2061 153.412 25.7617 152.433 26.183C151.167 26.7382 149.786 27.0062 148.328 27.0062C146.87 27.0062 145.489 26.7189 144.223 26.183C143.168 25.7234 142.209 25.1098 141.365 24.3822L142.957 22.7933ZM131.235 24.3637C130.391 25.1103 129.432 25.704 128.377 26.1635C127.111 26.7186 125.73 26.9867 124.272 26.9867C122.814 26.9867 121.433 26.6996 120.167 26.1635C119.169 25.7422 118.268 25.2057 117.481 24.5355L119.073 22.9467C119.668 23.4062 120.32 23.7887 121.03 24.0951C122.047 24.5355 123.14 24.7465 124.272 24.7465C125.404 24.7464 126.498 24.5163 127.514 24.0951C128.301 23.7696 129.01 23.3294 129.643 22.7933L131.235 24.3637ZM55.4422 26.9476H50.4158L49.3601 23.9037H41.1121L40.0564 26.9476H34.992L42.9529 6.24939H47.4998L55.4422 26.9476ZM13.2185 1.02185C13.583 0.352021 14.5424 0.352159 14.907 1.02185L27.99 24.8226C28.3545 25.4544 27.8753 26.2394 27.1082 26.2396H22.0047C21.8322 26.2395 21.6789 26.163 21.5447 26.0482L14.5047 19.3275C14.2361 19.0786 13.8328 19.0786 13.5642 19.3275L6.52421 26.0482C6.40911 26.1631 6.23592 26.2396 6.06327 26.2396H0.960734C0.231761 26.2396 -0.228319 25.4545 0.116984 24.8226L13.2185 1.02185ZM117.903 11.0941C117.366 11.726 116.925 12.4537 116.58 13.2387C116.158 14.2343 115.928 15.3258 115.928 16.4554C115.928 17.5851 116.139 18.6575 116.58 19.6722C116.925 20.4763 117.386 21.2039 117.923 21.8549L116.33 23.4437C115.582 22.5822 114.968 21.6251 114.508 20.5531C113.951 19.2894 113.682 17.9106 113.682 16.4554C113.682 15.0003 113.971 13.6215 114.508 12.3578C114.968 11.3047 115.581 10.3468 116.31 9.50428L117.903 11.0941ZM156.27 9.48572C157.018 10.3282 157.613 11.2861 158.073 12.3392C158.629 13.6028 158.898 14.981 158.898 16.4359C158.898 17.8911 158.61 19.2699 158.073 20.5336C157.613 21.6058 156.999 22.5632 156.251 23.4056L154.659 21.8168C155.215 21.1658 155.656 20.4569 156.002 19.6527C156.443 18.638 156.654 17.5655 156.654 16.4359C156.654 15.3255 156.443 14.2338 156.002 13.2191C155.676 12.4342 155.215 11.7255 154.678 11.0746L156.27 9.48572ZM141.806 11.3236C140.529 12.884 137.735 16.4303 137.701 16.474C137.701 16.474 140.521 20.0553 141.806 21.6254L140.233 23.1957C138.988 21.6655 136.287 18.2624 136.281 18.2553C136.265 18.275 133.554 21.6874 132.31 23.1957L130.737 21.6254C132.016 20.0634 134.832 16.4926 134.861 16.4554C134.843 16.4327 132.057 12.8698 130.757 11.2855L132.291 9.73475C133.535 11.2435 136.247 14.6379 136.262 14.6556C136.262 14.6556 138.947 11.2666 140.214 9.73475L141.806 11.3236ZM42.2244 19.6527H48.2478L45.2557 11.4388L42.2244 19.6527ZM99.6023 16.4935H105.204C105.76 16.4935 106.278 16.3975 106.777 16.1869C107.257 15.9763 107.698 15.6893 108.062 15.3256C108.427 14.9618 108.715 14.521 108.926 14.0424C109.137 13.5446 109.252 13.0276 109.252 12.4916C109.252 11.9363 109.137 11.4191 108.926 10.9213C108.715 10.4428 108.427 10.0028 108.062 9.63904C107.698 9.27526 107.257 8.98736 106.777 8.77674C106.278 8.56612 105.741 8.47108 105.204 8.47107H99.6023V16.4935ZM124.253 5.90467C125.711 5.90467 127.092 6.19276 128.358 6.72889C129.432 7.18836 130.411 7.80063 131.255 8.54725L129.663 10.1371C129.011 9.60096 128.301 9.16046 127.495 8.8158C125.481 7.9542 123.063 7.95417 121.03 8.8158C120.321 9.10295 119.669 9.50487 119.074 9.96424L117.462 8.37537C118.267 7.7052 119.17 7.15013 120.148 6.72889C121.414 6.1737 122.795 5.90472 124.253 5.90467ZM148.309 5.9242C149.767 5.92424 151.148 6.21143 152.414 6.74744C153.411 7.16869 154.314 7.70423 155.1 8.37439L153.508 9.96424C152.913 9.5047 152.26 9.12119 151.551 8.81482C149.536 7.9534 147.119 7.95326 145.086 8.81482C144.299 9.15946 143.57 9.60004 142.937 10.1361L141.326 8.5658C142.17 7.81908 143.13 7.20697 144.204 6.74744C145.47 6.19218 146.851 5.9242 148.309 5.9242Z" fill="#121514"/>
</svg>
