<svg width="140" height="41" viewBox="0 0 140 41" fill="none" xmlns="http://www.w3.org/2000/svg">
<path d="M24.1143 7.60645V0.259766H48.2285V20.2598H43.9512L48.2285 24.5654V40.2598H31.4668L24.1143 32.9131V40.2598H0V20.2598H4.27734L0 15.9541V0.259766H16.7617L24.1143 7.60645ZM24.1348 8.46289C24.0957 12.3935 24.1159 16.3283 24.1143 20.2598H5.21387L24.0928 32.0557C24.1319 28.1251 24.1126 24.1902 24.1143 20.2588C30.427 20.2588 36.7438 20.2758 43.0557 20.2383L24.1348 8.46289ZM61.1523 25.167C60.2244 19.4388 64.3964 14.7529 70.2041 15.2402C71.8365 15.3774 73.4812 15.8912 74.7861 16.8936V20.2188L73.6328 19.5176C69.3803 17.4213 64.5446 18.6205 64.8867 24.1592C65.1947 29.1412 70.6008 29.633 74.0908 27.4199C74.3685 27.2436 74.6191 27.0092 74.9082 26.8721V30.2393C73.643 31.2809 72.0316 31.8242 70.4072 31.9736C65.8314 32.394 61.906 29.8166 61.1523 25.167ZM97.3115 17.8926C98.8064 15.6934 101.387 14.8792 103.952 15.4629C110.578 16.9708 111.37 26.94 106.245 30.6191C103.267 32.7578 98.7346 32.328 96.8438 28.9941L96.457 31.4844H93.4834V10.2598H97.3115V17.8926ZM80.5283 24.5674C80.5878 26.3404 81.1692 28.522 83.2773 28.6699C85.8036 28.8471 86.9254 26.9081 87.1299 24.6494L87.1289 15.7295H90.957V31.4844H88.0244L87.6992 28.9951C86.8112 30.3469 85.5712 31.405 83.959 31.7568C79.7572 32.6733 76.829 29.6547 76.7402 25.5879L76.7412 15.7295H80.5293L80.5283 24.5674ZM119.229 16.3242C121.765 14.7106 125.498 15.1653 127.983 16.668V19.8516C127.938 19.858 127.902 19.8486 127.859 19.834C127.588 19.7385 127.145 19.4155 126.83 19.2734C125.451 18.6506 121.948 17.9049 120.943 19.3887C120.297 20.3438 121.029 21.0506 121.859 21.4375C123.683 22.2872 125.853 22.4072 127.455 23.79C129.674 25.7068 129.164 29.3572 126.759 30.8887C123.921 32.6952 119.726 31.8946 116.985 30.2383V27.0342C118.18 27.7664 119.461 28.4209 120.854 28.6895C122.062 28.9221 124.665 29.0444 125.181 27.5938C125.58 26.4682 124.552 25.8515 123.677 25.4932C121.522 24.6107 118.198 24.2714 117.341 21.6787C116.68 19.6787 117.463 17.4483 119.229 16.3242ZM135.438 10.2812V15.6885H139.938L140 15.749V18.79H135.438L135.436 26.1182C135.502 26.6186 135.519 27.1211 135.715 27.5938C136.387 29.2141 138.49 28.6026 139.715 28.0557V30.8926C139.002 31.3962 138.066 31.6814 137.204 31.8047C134.097 32.2479 131.957 30.9251 131.65 27.709C131.559 24.74 131.633 21.7624 131.608 18.791H128.961V15.7295H131.608V12.8525L135.356 10.2393L135.438 10.2812ZM115.071 31.4834H111.283V15.7285H115.071V31.4834ZM100.917 28.667C107.412 29.2009 107.292 17.9911 100.929 18.5576C95.7818 19.0156 96.0244 28.265 100.917 28.667ZM112.985 8.5166C116.276 8.28232 116.503 12.7144 113.421 12.9521C110.205 13.2003 109.736 8.74785 112.985 8.5166Z" fill="#121514"/>
</svg>
