<svg width="80" height="33" viewBox="0 0 80 33" fill="none" xmlns="http://www.w3.org/2000/svg">
<path d="M12.0557 0.779297C21.5618 0.779332 29.2656 7.94151 29.2656 16.7793C29.2656 25.617 21.5617 32.7793 12.0557 32.7793V24.8057C16.8253 24.8056 20.6894 21.2134 20.6895 16.7793C20.6895 12.3452 16.8253 8.75296 12.0557 8.75293H8.56152V16.7812H0V0.78418H4.28125V0.779297H12.0557ZM67.9443 8.75293C63.1747 8.75309 59.3105 12.3453 59.3105 16.7793C59.3106 21.2133 63.1748 24.8055 67.9443 24.8057H71.4385V16.7773H80V32.7744H75.7197V32.7793H67.9443C58.4385 32.7791 50.7344 25.617 50.7344 16.7793C50.7344 7.94166 58.4384 0.779456 67.9443 0.779297V8.75293ZM48.9033 8.75293C44.1355 8.75293 40.2727 12.3437 40.2725 16.7764C40.2725 21.2094 44.1353 24.8008 48.9033 24.8008V32.7744C39.3987 32.7744 31.6953 25.6129 31.6953 16.7764C31.6956 7.9401 39.3989 0.779297 48.9033 0.779297V8.75293Z" fill="#121514"/>
</svg>
