<svg width="163" height="49" viewBox="0 0 163 49" fill="none" xmlns="http://www.w3.org/2000/svg">
<path d="M22.8834 0.293667C41.9782 -0.702167 54.4092 20.4459 44.5075 36.7663C35.6651 51.3434 14.5909 52.2337 4.60023 38.404C-6.59916 22.9012 3.8687 1.28478 22.8834 0.293667ZM98.1862 19.3796C101.67 15.4938 107.97 16.607 109.695 21.6277C111.048 25.5641 110.285 31.1036 107.027 33.9314C104.803 35.8611 101.27 36.7772 98.4313 35.8991V41.2146C98.7713 41.6688 100.991 41.5585 101.199 41.8054C101.324 41.9589 101.145 43.5432 101.216 43.9128H91.2262C91.316 43.4873 91.0901 42.0533 91.2467 41.8083C91.4449 41.4993 93.3612 41.7664 93.1998 40.8952L93.193 21.2605C93.2012 20.6526 91.3514 20.6367 91.2321 20.5193C91.1405 20.4245 91.2098 18.0243 91.2965 17.8991L97.1676 17.114C98.1269 17.6275 98.1403 18.4084 98.1862 19.3796ZM17.3483 39.987L17.3502 39.9851H17.3483V39.987ZM23.2467 20.0339C24.9913 24.8602 20.7048 25.5195 17.0748 23.987C15.3174 23.2445 14.5962 22.3313 13.1744 21.3386C13.0358 21.2421 13.0103 21.1115 12.7633 21.1784C11.3104 26.1207 12.2102 31.528 16.2887 34.9118C16.6992 35.2515 18.7214 36.464 18.7946 36.6599C18.9599 37.1422 18.7883 38.0452 18.5787 38.5163L17.3502 39.9851H20.3786C21.7052 39.9851 23.5859 38.2704 24.3707 38.1081C24.9391 37.9904 27.5997 38.5511 27.8307 38.3484C27.5571 37.6453 27.0771 37.0997 26.7692 36.3835C26.291 35.2681 25.8973 33.5769 25.858 32.3718C25.8482 32.086 25.852 31.8325 26.1119 31.6462C26.0451 33.4568 28.666 37.8507 30.4088 38.1618C31.6325 38.3809 36.5877 36.2941 36.8385 34.9939C36.9464 34.4345 36.6938 33.5544 36.5661 32.9821C35.2488 27.0733 29.0896 21.4011 23.2467 20.0339ZM121.169 17.1394C128.743 16.3595 132.24 22.5035 130.788 29.3591C128.765 38.8988 113.899 38.5263 113.016 28.6189C112.497 22.7901 114.879 17.787 121.171 17.1394H121.169ZM141.808 17.1394C149.409 16.3628 153.11 22.3468 151.562 29.3318C149.582 38.2712 136.098 38.6803 134.029 29.8816C132.627 23.9252 135.206 17.8151 141.809 17.1394H141.808ZM74.9567 16.6355C84.0152 11.5313 93.0099 19.4504 84.3463 27.8093C82.3617 29.7254 79.9309 31.4295 77.4664 32.6316C77.5174 32.9291 78.3039 32.8056 78.527 32.7907C81.0791 32.6174 83.6386 32.1236 86.194 31.9421C86.7017 31.7911 87.3209 29.7493 87.6354 29.2077L89.819 29.6687L88.9469 35.8064L72.8219 35.9079L71.903 33.8503C75.5035 31.6326 81.5348 27.3314 81.8903 22.7439C82.2244 18.4393 78.1568 17.9212 75.0592 19.6843C74.7281 19.8728 73.767 20.7015 73.6119 20.7028C73.3157 20.7028 72.1698 18.9779 72.2926 18.7341C72.5662 18.1993 74.3653 16.9691 74.9567 16.6355ZM61.3453 12.197C63.3373 9.10942 67.5321 7.51691 71.0768 8.58468V13.3288C69.9512 12.5438 67.1948 11.5956 66.0778 12.6716C65.9205 12.8237 65.5075 13.5924 65.5075 13.738V17.5818H69.4391V20.362H65.5075V33.446C66.0218 33.4918 68.5413 33.5047 68.7936 33.6814C69.072 33.8762 69.0359 35.8991 68.7018 35.8991H57.6452V33.6091C58.4691 33.5813 59.5947 33.6087 60.2662 33.1999V20.362H57.6452C57.7352 19.9384 57.511 18.4986 57.6666 18.2566C57.7775 18.0896 59.8814 17.7708 60.2448 17.5583C60.1842 15.5336 60.2217 13.9371 61.3453 12.197ZM153.308 35.8982L153.305 35.8962H153.308V35.8982ZM159.782 8.82394C160.234 9.07904 160.839 9.37366 160.85 9.96554L160.84 33.4431C161.207 33.4496 162.743 33.5446 162.899 33.7585C163.125 34.0708 162.884 35.425 162.97 35.8962H153.308C153.396 35.4253 153.153 34.0728 153.379 33.7605C153.533 33.5462 155.071 33.4516 155.438 33.445L155.446 12.115L153.145 11.6911V9.56515L159.782 8.82394ZM103.418 21.1921C102.258 19.6142 99.4142 19.7975 98.4674 21.4607C98.6393 25.0913 98.1218 29.1344 98.4264 32.7175C98.4493 32.9856 98.4479 33.3654 98.6393 33.5681V33.57C98.8711 33.8153 100.109 34.114 100.481 34.114C101.911 34.1138 103.133 33.1822 103.707 31.9265C104.839 29.4456 105.095 23.4723 103.418 21.1921ZM124.757 22.1267C124.297 20.3998 123.533 19.0895 121.486 19.4196H121.488C120.921 19.5112 120.41 19.8387 120.056 20.28C118.258 22.5239 118.407 30.0492 119.758 32.5173C120.838 34.4861 123.457 34.3745 124.394 32.2976C125.573 29.6839 125.488 24.874 124.757 22.1267ZM145.238 21.1413C144.725 19.851 143.516 19.1302 142.124 19.4196L142.123 19.4177C141.389 19.5716 140.654 20.4189 140.337 21.0681C139.17 23.4513 139.218 30.21 140.525 32.5505C141.675 34.6112 144.432 34.2726 145.289 32.0632C146.25 29.5837 146.224 23.6191 145.238 21.1413ZM32.2106 32.0027C34.1976 31.597 33.6192 34.5809 32.0319 33.7517C31.1475 33.2904 31.3131 32.1859 32.2106 32.0027ZM16.6911 15.1286C15.5543 15.6017 13.042 19.2481 13.0953 20.2888C13.1167 20.6975 15.2825 22.1173 15.7623 22.3523C16.7779 22.8494 18.0133 23.2243 19.15 23.1394C18.6047 22.4626 17.9904 21.9798 17.5973 21.1755C17.1404 20.2383 16.7913 18.542 16.693 17.4987L16.6911 17.5007C16.6191 16.7419 16.7435 15.8972 16.6911 15.1286ZM22.5875 7.76925C22.2592 7.47219 19.9459 9.78951 19.6452 10.1452C18.6591 11.3145 17.7723 12.8326 17.3463 14.3093C19.8918 14.5628 22.2934 15.9705 24.8815 15.4538C25.0774 15.2851 23.9225 14.2702 23.7633 14.0378C22.6694 12.4433 22.1929 9.65318 22.5875 7.76925Z" fill="#121514"/>
</svg>
