<svg width="121" height="41" viewBox="0 0 121 41" fill="none" xmlns="http://www.w3.org/2000/svg">
<path d="M40.0791 40.2598H0V0.259766H40.0791V40.2598ZM13.6953 30.4424H17.0596V22.4922H26.5352V19.5049H17.0596V14.7148H27.0557V11.6777H13.6953V30.4424ZM76.4639 13.8975C76.6022 13.8975 76.7129 13.9118 76.7891 13.9326V15.7764L76.6025 15.7559C76.3259 15.7559 76.0769 15.7977 75.8555 15.8877C75.6341 15.9779 75.4813 16.1441 75.4121 16.3799C75.751 16.9415 75.9248 17.5379 75.9248 18.1689C75.9248 18.7375 75.8132 19.2506 75.5918 19.6943C75.3704 20.1381 75.0736 20.5132 74.7139 20.8184C74.3472 21.1235 73.9178 21.359 73.4336 21.5254C72.9423 21.6918 72.437 21.7754 71.9043 21.7754C71.3441 21.7754 70.8184 21.685 70.3066 21.5117C70.196 21.5741 70.0853 21.6712 69.9746 21.7891C69.8639 21.9069 69.8155 22.0524 69.8154 22.2188C69.8154 22.51 69.9328 22.7048 70.168 22.8018C70.4032 22.8988 70.6455 22.9473 70.9014 22.9473H72.5342C72.7762 22.9473 73.032 22.9472 73.3086 22.9541C73.5853 22.961 73.8697 22.9887 74.1533 23.0303C74.4369 23.0719 74.7136 23.1413 74.9902 23.2314C75.2599 23.3215 75.5091 23.446 75.7373 23.6123C76.1663 23.9035 76.4782 24.258 76.6582 24.6602C76.8379 25.0761 76.9277 25.5198 76.9277 25.998L76.9209 26.0117C76.9209 26.6566 76.7749 27.1979 76.4844 27.6279C76.1938 28.0577 75.8208 28.3979 75.3643 28.6475C74.9077 28.8971 74.3954 29.07 73.8281 29.167C73.2608 29.2711 72.6999 29.3203 72.1533 29.3203C71.5446 29.3203 70.9426 29.2787 70.3408 29.1885C69.7388 29.0984 69.1781 28.8696 68.6592 28.502C68.2787 28.2385 67.9887 27.926 67.7812 27.5654C67.5736 27.2048 67.4697 26.7957 67.4697 26.3242C67.4697 25.8943 67.5738 25.4924 67.7744 25.1318C67.975 24.7712 68.265 24.493 68.6455 24.2988C68.3275 24.1186 68.085 23.8764 67.9121 23.5645C67.7391 23.2526 67.6563 22.9334 67.6562 22.6006C67.6562 21.7477 68.0512 21.082 68.833 20.6035C68.5285 20.2984 68.2862 19.9442 68.1133 19.5352C67.9334 19.126 67.8496 18.6753 67.8496 18.1621C67.8496 17.5796 67.9603 17.0592 68.1748 16.6016C68.3892 16.144 68.6803 15.763 69.0469 15.458C69.4136 15.1529 69.8428 14.9241 70.3271 14.7646C70.8114 14.6051 71.3371 14.5283 71.8906 14.5283C72.2986 14.5283 72.686 14.5836 73.0664 14.6875C73.447 14.7985 73.8008 14.9445 74.1328 15.1318C74.3473 14.7019 74.6307 14.3895 74.9834 14.1885C75.3362 13.9944 75.7237 13.8975 76.1387 13.8975H76.4639ZM70.4658 24.8467C70.2098 24.923 70.002 25.0692 69.8291 25.2773C69.6562 25.4853 69.5733 25.7485 69.5732 26.0674C69.5732 26.3864 69.6562 26.6293 69.8291 26.8096C70.002 26.9898 70.2099 27.1218 70.4658 27.2188C70.7217 27.3158 70.9918 27.3717 71.2822 27.3994C71.5726 27.4272 71.8353 27.4336 72.0566 27.4336C72.2987 27.4336 72.5686 27.427 72.873 27.4062C73.1775 27.3855 73.4617 27.3362 73.7246 27.2461C73.9873 27.1559 74.2158 27.0171 74.3955 26.8369C74.5752 26.6497 74.6719 26.3931 74.6719 26.0674H74.6787C74.6787 25.7624 74.5957 25.5267 74.4297 25.3604C74.2637 25.194 74.0631 25.0763 73.835 25C73.5998 24.9237 73.3439 24.8821 73.0742 24.8682C72.8044 24.8544 72.5544 24.8467 72.3262 24.8467H70.4658ZM98.6211 14.5625C99.3543 14.5625 100.04 14.7077 100.677 15.0059C101.306 15.3041 101.826 15.7626 102.233 16.3867C102.6 16.9344 102.835 17.4892 102.933 18.0508C103.029 18.6124 103.085 19.2092 103.085 19.8262L103.091 19.8193C103.078 19.9092 103.07 19.9923 103.07 20.0684V20.4844H96.4629C96.4629 20.8657 96.525 21.2266 96.6426 21.5732C96.7602 21.913 96.9473 22.2048 97.1826 22.4336C97.3624 22.5998 97.5697 22.7386 97.7979 22.8633C98.033 22.9812 98.3104 23.043 98.6426 23.043C98.9745 23.0429 99.2651 23.0088 99.4863 22.9395C99.7076 22.8702 99.9081 22.7455 100.081 22.5723C100.31 22.3435 100.468 22.0653 100.559 21.7324H102.835C102.807 22.0237 102.71 22.3427 102.537 22.6963C102.364 23.043 102.184 23.3347 101.997 23.5635C101.582 24.0558 101.077 24.4169 100.496 24.6318C99.915 24.8466 99.3062 24.957 98.6768 24.957C97.9918 24.957 97.4035 24.8459 96.8984 24.624C96.4005 24.4022 95.9508 24.1046 95.5566 23.7373C95.0654 23.2519 94.6846 22.6755 94.4287 22.0029C94.1659 21.3303 94.041 20.5885 94.041 19.7773C94.041 18.966 94.1594 18.2381 94.3945 17.5586C94.6298 16.8791 94.9894 16.2959 95.4668 15.8174C95.8334 15.4362 96.283 15.1312 96.8086 14.9023C97.3343 14.6736 97.9363 14.5625 98.6211 14.5625ZM118.708 14.791H121.199V16.7539H118.708V21.5732C118.708 21.9546 118.798 22.2319 118.972 22.4053C119.151 22.5784 119.428 22.6621 119.808 22.6621C120.064 22.6621 120.3 22.6614 120.521 22.6406C120.743 22.6268 121.019 22.606 121.344 22.5645V24.5615H121.351C120.666 24.7417 119.988 24.8252 119.317 24.8252C118.314 24.8252 117.566 24.5546 117.075 24.0137C116.585 23.4728 116.335 22.7311 116.335 21.7744V16.7471H114.529V14.7842H116.335V12.2812L118.708 11.6914V14.791ZM83.2969 14.5498C83.9954 14.5498 84.5766 14.6953 85.0469 14.9795C85.5174 15.2638 85.877 15.6667 86.126 16.1729C86.4166 15.6528 86.8182 15.2501 87.3301 14.9727C87.8421 14.6954 88.4373 14.5567 89.1084 14.5566C90.1737 14.5566 90.9691 14.8758 91.5088 15.5205C92.0485 16.1654 92.3193 16.9981 92.3193 18.0244V24.709H89.96L89.9453 24.6953V18.5439C89.9453 17.9338 89.8423 17.4618 89.6348 17.1221C89.4272 16.7894 89.0255 16.6162 88.4307 16.6162C88.0916 16.6162 87.7939 16.6999 87.5586 16.8525C87.3165 17.012 87.116 17.22 86.9639 17.4834C86.8047 17.7469 86.6865 18.0308 86.6104 18.3496C86.5342 18.6685 86.5 18.981 86.5 19.2861V24.6953H84.1475V18.5439C84.1474 17.9338 84.0435 17.4618 83.8359 17.1221C83.6284 16.7897 83.2274 16.6163 82.6328 16.6162C82.2938 16.6162 81.996 16.6999 81.7607 16.8525C81.5186 17.012 81.3175 17.2199 81.1514 17.4834C80.9855 17.7468 80.868 18.0309 80.792 18.3496C80.7158 18.6685 80.6816 18.981 80.6816 19.2861V24.6953H78.3291V14.793H80.3008L80.4873 16.1104C80.7641 15.6527 81.1379 15.2776 81.6084 14.9863C82.0788 14.6952 82.6396 14.5498 83.2969 14.5498ZM61.4082 13.4189H54.5518V17.0459H60.668V19.2725H54.5518V24.7021H52.1025V11.1934H61.4082V13.4189ZM109.997 14.543C110.53 14.543 111 14.6334 111.416 14.8066C111.824 14.9869 112.176 15.2299 112.46 15.542C112.745 15.854 112.967 16.2281 113.118 16.665C113.27 17.1019 113.346 17.5738 113.346 18.0869V24.6953H110.967V18.6201C110.967 18.0378 110.849 17.5798 110.628 17.2471C110.399 16.9143 109.97 16.7549 109.333 16.7549C108.918 16.7549 108.566 16.8727 108.289 17.1084C108.012 17.3442 107.79 17.6431 107.625 18.0176C107.459 18.385 107.361 18.8146 107.341 19.2998C107.313 19.7922 107.299 20.2431 107.299 20.6592V24.6953H104.927V14.793H106.919L107.092 16.0684C107.382 15.5484 107.797 15.1597 108.337 14.917C108.877 14.6674 109.43 14.543 109.997 14.543ZM65.6289 24.6943H63.2148V14.792H65.6289V24.6943ZM71.8906 16.3389C71.351 16.3389 70.9217 16.5116 70.6104 16.8584C70.2991 17.205 70.1475 17.6489 70.1475 18.1826C70.1475 18.7166 70.2989 19.1543 70.6104 19.501C70.9217 19.8407 71.351 20.0137 71.8906 20.0137C72.4302 20.0137 72.8596 19.8407 73.1709 19.501C73.4822 19.1612 73.6338 18.7166 73.6338 18.1826C73.6337 17.6489 73.4752 17.2119 73.1709 16.8584C72.8596 16.5047 72.4303 16.3389 71.8906 16.3389ZM98.6074 16.4482C98.2408 16.4483 97.9155 16.5177 97.6387 16.6562C97.362 16.7949 97.134 16.9831 96.9541 17.2119C96.7743 17.4269 96.6493 17.6558 96.5732 17.8984C96.4972 18.141 96.4562 18.4253 96.4424 18.7578H100.718V18.751C100.704 18.03 100.504 17.4475 100.109 17.0176C99.9434 16.8373 99.7423 16.6987 99.4932 16.6016C99.2441 16.4976 98.9533 16.4482 98.6074 16.4482ZM64.4102 11.207C65.2195 11.2071 65.8212 11.8587 65.8213 12.6006H65.8145C65.8145 13.3773 65.2335 13.9599 64.4102 13.96C63.5868 13.96 63.0059 13.3426 63.0059 12.6006C63.006 11.8587 63.6007 11.207 64.4102 11.207Z" fill="#121514"/>
</svg>
