<svg width="141" height="41" viewBox="0 0 141 41" fill="none" xmlns="http://www.w3.org/2000/svg">
<path d="M35.2046 34.4141V40.0996H6.77783V34.4141H35.2046ZM59.3677 11.7676C61.725 11.7676 63.5257 12.7798 64.6392 14.6416L64.5405 12.2568C64.5399 12.2268 64.545 12.1968 64.5562 12.1689C64.5674 12.1409 64.5845 12.1151 64.606 12.0938C64.6273 12.0724 64.6531 12.0561 64.6812 12.0449C64.7093 12.0337 64.7398 12.0275 64.77 12.0283H67.2915C67.3218 12.0275 67.3522 12.0337 67.3804 12.0449C67.4083 12.0561 67.4342 12.0725 67.4556 12.0938C67.4769 12.1151 67.4931 12.1409 67.5044 12.1689C67.5156 12.1969 67.5216 12.2267 67.521 12.2568L67.4556 18.7568L67.4878 27.7061C67.5175 32.5394 64.7999 35.249 59.9878 35.249C56.0915 35.3146 53.0141 33.6484 52.7192 29.9902C52.7186 29.9602 52.7237 29.9302 52.7349 29.9023C52.7461 29.8743 52.7632 29.8485 52.7847 29.8271C52.8061 29.8058 52.8318 29.7895 52.8599 29.7783C52.888 29.7671 52.9185 29.7609 52.9487 29.7617H55.438C55.569 29.7617 55.6676 29.8597 55.7007 29.9902C55.9951 32.1131 57.697 33.0947 60.0542 33.0947C62.8044 33.0947 64.7035 31.4615 64.7036 27.6729V25.7783C63.6232 27.6404 61.8226 28.7499 59.4663 28.75C54.7518 28.75 52.2632 25.1907 52.2632 20.3896C52.2632 15.6212 54.8169 11.7676 59.3677 11.7676ZM20.9917 0.0996094C32.0928 0.0997784 41.0923 9.10082 41.0923 20.2012C41.0922 25.7513 38.8417 30.775 35.2046 34.4121V5.9873H6.77783V34.4072C3.14073 30.7705 0.890222 25.7489 0.890137 20.2012C0.890137 9.10071 9.89046 0.0996094 20.9917 0.0996094ZM128.304 12.0293C128.371 12.0309 128.437 12.0536 128.49 12.0947C128.543 12.1358 128.581 12.1933 128.599 12.2578L133.412 24.9951L137.472 12.2578C137.49 12.1933 137.529 12.1358 137.582 12.0947C137.634 12.0537 137.699 12.031 137.766 12.0293H140.385C140.516 12.0293 140.582 12.1271 140.549 12.2578L132.888 34.1719C132.87 34.2364 132.832 34.2938 132.779 34.335C132.726 34.3762 132.66 34.3997 132.593 34.4014H130.204C130.177 34.4002 130.15 34.3927 130.126 34.3799C130.103 34.367 130.082 34.3491 130.066 34.3271C130.05 34.3052 130.039 34.2795 130.035 34.2529C130.03 34.2262 130.032 34.1979 130.04 34.1719L131.874 28.8818L125.26 12.2578C125.194 12.1271 125.26 12.0293 125.391 12.0293H128.304ZM76.6714 11.7012C79.0611 11.7013 80.8613 12.7138 81.9751 14.5752L81.9097 12.2559C81.909 12.2258 81.9141 12.1959 81.9253 12.168C81.9366 12.1399 81.9537 12.1141 81.9751 12.0928C81.9965 12.0714 82.0222 12.0542 82.0503 12.043C82.0782 12.0319 82.1082 12.0266 82.1382 12.0273H84.6909C84.7209 12.0266 84.7509 12.0319 84.7788 12.043C84.8069 12.0541 84.8326 12.0714 84.854 12.0928C84.8754 12.1141 84.8925 12.1399 84.9038 12.168C84.915 12.1959 84.9201 12.2258 84.9194 12.2559L84.8218 20.29L84.9233 28.6201C84.9239 28.6504 84.9182 28.6809 84.9067 28.709C84.8952 28.7372 84.8777 28.7629 84.856 28.7842C84.8342 28.8055 84.8082 28.8221 84.7798 28.833C84.7514 28.8439 84.7213 28.8489 84.6909 28.8477H82.1714C82.1412 28.8484 82.1106 28.8432 82.0825 28.832C82.0545 28.8208 82.0287 28.8035 82.0073 28.7822C81.9862 28.761 81.9697 28.7357 81.9585 28.708C81.9472 28.6799 81.9412 28.6494 81.9419 28.6191L82.0073 26.1367C80.8617 28.031 79.0583 29.1738 76.605 29.1738C72.0544 29.1736 69.6313 25.3524 69.6313 20.4863C69.6314 15.6201 72.2187 11.7012 76.6714 11.7012ZM99.9146 11.7012C102.304 11.7012 104.105 12.7137 105.218 14.5752L105.153 12.2559C105.152 12.2257 105.158 12.1959 105.169 12.168C105.181 12.14 105.197 12.1141 105.218 12.0928C105.24 12.0715 105.265 12.0542 105.293 12.043C105.322 12.0318 105.352 12.0266 105.382 12.0273H107.936C107.966 12.0266 107.997 12.0318 108.025 12.043C108.053 12.0541 108.078 12.0716 108.099 12.0928C108.121 12.1141 108.138 12.1399 108.149 12.168C108.16 12.1959 108.166 12.2257 108.166 12.2559L108.067 20.29L108.166 28.6191C108.166 28.6492 108.16 28.6791 108.149 28.707C108.138 28.7351 108.121 28.7609 108.099 28.7822C108.078 28.8035 108.052 28.8208 108.024 28.832C107.996 28.8431 107.966 28.8484 107.936 28.8477H105.415C105.384 28.8483 105.355 28.8432 105.327 28.832C105.299 28.8208 105.273 28.8036 105.251 28.7822C105.23 28.761 105.213 28.7359 105.202 28.708C105.19 28.6799 105.185 28.6494 105.186 28.6191L105.251 26.1367C104.106 28.0311 102.304 29.1738 99.8491 29.1738C95.2983 29.1738 92.8755 25.3526 92.8755 20.4863C92.8755 15.6202 95.462 11.7013 99.9146 11.7012ZM90.5132 5.98633C90.5433 5.98559 90.5731 5.99086 90.6011 6.00195C90.6292 6.01314 90.6548 6.03039 90.6763 6.05176C90.6976 6.07304 90.7148 6.09804 90.7261 6.12598C90.7374 6.15407 90.7424 6.18458 90.7417 6.21484L90.644 17.2539L90.7417 28.6211C90.7424 28.6514 90.7374 28.6819 90.7261 28.71C90.7148 28.7379 90.6976 28.7629 90.6763 28.7842C90.6548 28.8055 90.6292 28.8228 90.6011 28.834C90.5731 28.8451 90.5433 28.8503 90.5132 28.8496L87.9907 28.8477C87.9607 28.8484 87.9308 28.8432 87.9028 28.832C87.8747 28.8208 87.849 28.8036 87.8276 28.7822C87.8064 28.761 87.7891 28.7359 87.7778 28.708C87.7666 28.6799 87.7615 28.6494 87.7622 28.6191L87.8599 17.2861L87.7622 6.21484C87.7615 6.18461 87.7666 6.15404 87.7778 6.12598C87.7891 6.09807 87.8064 6.07303 87.8276 6.05176C87.849 6.03039 87.8747 6.01317 87.9028 6.00195C87.9308 5.99083 87.9607 5.98563 87.9907 5.98633H90.5132ZM113.17 12.0293C113.301 12.0294 113.465 12.095 113.53 12.2256L117.328 18.3975L120.995 12.2256C121.035 12.1669 121.089 12.118 121.152 12.084C121.214 12.0501 121.284 12.0313 121.355 12.0293H123.909C123.932 12.0283 123.955 12.0342 123.975 12.0459C123.995 12.0576 124.011 12.0751 124.021 12.0957C124.031 12.1163 124.035 12.1392 124.033 12.1621C124.03 12.1852 124.021 12.2077 124.006 12.2256L119.162 20.0312L124.563 28.6543C124.577 28.6722 124.586 28.6941 124.588 28.7168C124.591 28.7394 124.586 28.762 124.576 28.7822C124.565 28.8026 124.549 28.8194 124.53 28.8311C124.51 28.8426 124.488 28.8484 124.465 28.8477H121.551C121.42 28.8475 121.256 28.7826 121.191 28.6543L117.001 21.7959L112.81 28.6543C112.744 28.7845 112.581 28.8476 112.45 28.8477H109.797C109.775 28.8483 109.752 28.8426 109.733 28.8311C109.713 28.8194 109.697 28.8026 109.687 28.7822C109.677 28.762 109.672 28.7394 109.674 28.7168C109.677 28.6941 109.686 28.6722 109.7 28.6543L115.167 19.9336L110.158 12.2256C110.143 12.2077 110.134 12.1852 110.131 12.1621C110.129 12.1393 110.133 12.1162 110.143 12.0957C110.153 12.075 110.17 12.0576 110.19 12.0459C110.21 12.0342 110.233 12.0282 110.256 12.0293H113.17ZM77.1968 13.8887C74.1194 13.9868 72.6792 16.5659 72.6792 20.2578C72.6773 24.2765 74.1826 26.9853 77.3579 26.9854H77.3608C80.2742 26.9851 82.0421 24.8297 82.0747 20.584C82.1072 16.5016 80.5362 14.085 77.7534 13.8887H77.1968ZM100.441 13.8887C97.3632 13.9868 95.9224 16.5659 95.9224 20.2578C95.9205 24.2765 97.4264 26.9853 100.602 26.9854H100.604C103.518 26.9854 105.286 24.8299 105.319 20.584C105.351 16.5017 103.78 14.0852 100.998 13.8887H100.441ZM59.8218 13.8896C56.8102 13.9879 55.272 16.4697 55.272 20.291C55.2736 24.3416 56.9102 26.6605 60.1187 26.6279V26.627C62.8688 26.6269 64.669 24.667 64.7017 20.5195C64.7346 16.5026 63.1632 14.086 60.3804 13.8896H59.8218Z" fill="#121514"/>
</svg>
