<svg width="110" height="41" viewBox="0 0 110 41" fill="none" xmlns="http://www.w3.org/2000/svg">
<path d="M37.4424 0.0996094C38.6097 0.0996113 39.54 0.370717 40.2568 0.888672L40.2627 0.892578C40.9702 1.37937 41.2998 1.98752 41.2998 2.7334C41.2998 3.3738 41.129 3.91339 40.7949 4.36523L40.7881 4.37402C40.4776 4.82665 40.1471 5.00391 39.7959 5.00391C39.5826 5.00386 39.4466 4.92575 39.3447 4.75977C39.1923 4.47924 38.9695 3.9834 38.6748 3.26172C38.4226 2.61866 38.1048 2.10367 37.7109 1.7373C37.3216 1.32163 36.8166 1.11719 36.2246 1.11719C35.2178 1.11726 34.3848 1.67488 33.7236 2.67871L33.7197 2.68359C33.1007 3.66673 32.4958 5.18665 31.8984 7.21875C31.5725 8.32959 31.3134 9.3623 31.1221 10.3154C31.0686 10.5296 31.0269 10.7038 30.999 10.8359C30.9735 10.9565 30.9521 11.075 30.9521 11.1553V11.2354C30.9521 11.4567 31.0265 11.6728 31.2168 11.8223C31.3926 11.9597 31.619 12.0029 31.8418 12.0029C32.3372 12.0029 33.0463 11.9746 33.9648 11.9209L35.9043 11.8818L35.9199 11.9121L35.957 11.9492C35.9587 11.951 35.964 11.9573 35.9697 11.9746C35.9766 11.9954 35.9844 12.0308 35.9844 12.0859C35.9843 12.1924 35.9051 12.4163 35.6377 12.79L35.6338 12.7959L35.6289 12.8027C35.5174 12.9761 35.4204 13.0877 35.3408 13.1533C35.2632 13.217 35.2212 13.2216 35.2109 13.2217L31.7979 13.3027C31.3436 13.303 30.9485 13.3733 30.6572 13.5547L30.6484 13.5596L30.6406 13.5654C30.3747 13.7548 30.2068 14.0432 30.1123 14.3867C28.4044 20.1699 28.0396 21.9594 26.9121 27.4873L26.7461 28.2969L26.7441 28.3125C26.5917 29.294 26.1639 30.476 25.6719 31.5947C25.1821 32.7086 24.6376 33.7394 24.2646 34.4121C23.5248 35.7467 22.7334 36.8143 21.8945 37.623L21.8906 37.627C21.0697 38.4457 20.2734 39.0425 19.5029 39.4268C18.8616 39.7464 18.3518 39.9689 17.9688 40.0996L17.7969 39.6816C18.119 39.4809 18.4763 39.193 18.8662 38.8271C19.386 38.3691 19.8806 37.7526 20.3525 36.9883C20.8588 36.2152 21.3159 35.2727 21.7256 34.165C22.161 33.0924 23.0488 30.5415 23.2881 29.0635L26.4316 14.5576C26.4694 14.4349 26.4824 14.2948 26.4824 14.1504C26.4823 13.9221 26.3892 13.7143 26.1875 13.5801C26.0086 13.4609 25.7803 13.4248 25.5518 13.4248L23.1143 13.4648C22.9484 13.4645 22.8696 13.4336 22.835 13.4111C22.8145 13.3714 22.79 13.2899 22.79 13.1387C22.79 12.9605 22.8602 12.7598 23.043 12.5312C23.2403 12.2917 23.4464 12.1836 23.666 12.1641L26.3057 12.042L26.3145 12.041C26.7852 11.9939 27.0399 11.6107 27.1611 11.1592L27.4844 10.0303C28.1798 7.70943 29.0851 5.81696 30.1924 4.34375C31.3355 2.83202 32.5317 1.7628 33.7764 1.11621L34.2588 0.875C35.3722 0.353899 36.4326 0.0996094 37.4424 0.0996094ZM40.5801 30.8652C41.468 30.8653 42.8368 31.2815 42.8369 32.3594V33.0635H41.5752V32.7227C41.5752 32.3705 41.0721 32.1358 40.5693 32.1357C39.9275 32.1357 39.4562 32.4661 39.4561 32.9463C39.4561 34.2378 43.0303 33.9819 43.0303 36.4688C43.0303 37.6748 42.099 38.6992 40.5049 38.6992C38.8253 38.6992 37.8945 37.5254 37.8945 37.5254L38.6865 36.5439C38.7054 36.5654 39.4802 37.4404 40.5264 37.4404C41.1039 37.4404 41.6169 37.1307 41.6172 36.5439C41.6172 35.2525 38.044 35.3587 38.0439 33C38.0439 31.7726 39.1144 30.8652 40.5801 30.8652ZM61.8066 30.8652C62.6946 30.8652 64.0643 31.2815 64.0645 32.3594V33.0635H62.8018V32.7227C62.8018 32.3704 62.2987 32.1357 61.7959 32.1357C61.1541 32.1357 60.6838 32.4661 60.6836 32.9463C60.6836 34.2378 64.2568 33.9819 64.2568 36.4688C64.2568 37.6748 63.3255 38.6992 61.7314 38.6992C60.0519 38.6991 59.1211 37.5254 59.1211 37.5254L59.9131 36.5439C59.93 36.5632 60.7055 37.4403 61.7529 37.4404C62.3305 37.4404 62.8445 37.1307 62.8447 36.5439C62.8447 35.2525 59.2716 35.3587 59.2715 33C59.2715 31.7726 60.3409 30.8652 61.8066 30.8652ZM107.708 30.8652C108.596 30.8652 109.966 31.2815 109.966 32.3594V33.0635H108.703V32.7227C108.703 32.3704 108.2 32.1357 107.697 32.1357C107.055 32.1358 106.585 32.4661 106.585 32.9463C106.585 34.2378 110.158 33.9819 110.158 36.4688C110.158 37.6748 109.227 38.6992 107.633 38.6992C105.953 38.6991 105.022 37.5254 105.022 37.5254L105.814 36.5439C105.831 36.563 106.607 37.4403 107.654 37.4404C108.232 37.4404 108.746 37.1307 108.746 36.5439C108.746 35.2525 105.173 35.3587 105.173 33C105.173 31.7726 106.242 30.8652 107.708 30.8652ZM48.6338 30.9932C49.1258 30.9932 49.3402 31.068 49.6289 31.5479L50.6348 33.2139C50.9021 33.6514 51.0947 34.0674 51.0947 34.0674H51.1162C51.2574 33.7766 51.411 33.4918 51.5762 33.2139L52.5713 31.5479C52.8494 31.0679 53.0744 30.9932 53.5664 30.9932H54.2832V32.1777H54.0371C53.8017 32.1777 53.7377 32.2211 53.5986 32.4346L51.8008 35.2627V38.5713H50.3994V35.2627L48.6025 32.4346C48.4635 32.2211 48.3985 32.1777 48.1631 32.1777H47.917V30.9932H48.6338ZM75.1777 30.9932C75.6913 30.9932 75.8633 31.1751 75.8633 31.6768V32.8721H74.6328V32.4131C74.6328 32.2638 74.547 32.1779 74.3975 32.1777H73.2314V38.5713H71.8291V32.1777H70.6631C70.5134 32.1778 70.4277 32.2637 70.4277 32.4131V32.8721H69.1973V31.6768C69.1973 31.1753 69.3687 30.9933 69.8818 30.9932H75.1777ZM85.3662 30.9932C85.8689 30.9932 86.0936 31.2174 86.0938 31.7188V32.8721H84.8213V32.4131C84.8213 32.2638 84.7355 32.1779 84.5859 32.1777H82.874V34.1631H85.334V35.3477H82.874V37.1523C82.8742 37.3015 82.9598 37.3867 83.1094 37.3867H84.8633C85.0129 37.3867 85.0984 37.3015 85.0986 37.1523V36.6934H86.3721V37.8457C86.3721 38.358 86.1473 38.5713 85.6445 38.5713H82.2002C81.6867 38.5713 81.4727 38.358 81.4727 37.8457V32.1777H80.7764V30.9932H85.3662ZM95.2539 34.6006C95.4358 35.0382 95.6279 35.6152 95.6279 35.6152H95.6494C95.6494 35.6152 95.8416 35.0382 96.0234 34.6006L97.5859 30.9932H99.041L99.5332 37.1523C99.544 37.3015 99.6189 37.3867 99.7686 37.3867H100.1V38.5713H98.8906C98.3882 38.5712 98.2166 38.3578 98.1738 37.8457L97.918 34.4727C97.8754 33.9732 97.907 33.3046 97.9072 33.2988H97.8857C97.8857 33.2988 97.6603 34.0457 97.4678 34.4727L96.2061 37.2695H95.0713L93.8096 34.4727C93.617 34.0457 93.3916 33.2881 93.3916 33.2881H93.3711C93.3712 33.2911 93.403 33.9722 93.3604 34.4727L93.1143 37.8457C93.0715 38.3579 92.8893 38.5712 92.3867 38.5713H91.1777V37.3867H91.5088C91.6584 37.3867 91.7333 37.3015 91.7441 37.1523L92.2363 30.9932H93.6914L95.2539 34.6006ZM42.8701 12.8887C46.6947 12.8887 49.7908 15.7949 49.791 19.6611C49.791 23.6055 46.6949 26.5644 42.8701 26.5645C39.0453 26.5645 35.9492 23.6056 35.9492 19.6611C35.9495 15.7949 39.0455 12.8887 42.8701 12.8887ZM95.4424 12.8887C98.5901 12.8888 100.333 14.6273 100.333 17.8965V26.2529H98.6426V24.8252C98.6426 24.189 98.6924 23.7527 98.6943 23.7363H98.6426C98.6283 23.7729 97.528 26.5643 94.2715 26.5645C92.086 26.5645 89.8223 25.2924 89.8223 22.6973C89.8225 18.2859 95.5726 18.1826 97.8359 18.1826H98.5645V17.8447C98.5643 15.3278 97.1849 14.4717 95.3115 14.4717C93.1632 14.4718 91.6329 15.7041 91.6172 15.7168L90.7842 14.3682C90.7842 14.3682 92.5023 12.8887 95.4424 12.8887ZM107.606 22.7754C107.606 24.4879 108.387 24.748 109.063 24.748C109.294 24.748 109.499 24.7225 109.506 24.7217V26.3047C109.498 26.3061 109.189 26.3564 108.855 26.3564C107.763 26.3564 105.837 26.0194 105.837 23.165V8.00977H107.606V22.7754ZM1.82129 26.2529H0.0517578V13.2002H1.82129V26.2529ZM14.6338 12.8887C17.8597 12.8888 19.0039 14.7316 19.0039 17.9492V26.2529H17.2354V18.416C17.2354 16.3662 16.9229 14.5499 14.3994 14.5498C12.1616 14.5498 10.2365 16.0807 9.6377 18.2344C9.48197 18.7793 9.42969 19.3764 9.42969 19.999V26.2529H7.66016V13.2002H9.40332V15.1465C9.40332 15.7172 9.35156 16.1846 9.35156 16.1846H9.40332C9.87168 14.9909 11.5374 12.8887 14.6338 12.8887ZM60.5391 13.0703C60.9032 13.0704 61.2412 13.1484 61.2412 13.1484V14.8867C61.2412 14.8867 60.9292 14.835 60.5908 14.835C58.7436 14.835 57.3644 16.2881 56.792 18.208C56.532 19.0383 56.4278 19.921 56.4277 20.751V26.2529H54.6582V13.2002H56.4014V15.5098C56.4014 16.0804 56.3496 16.5479 56.3496 16.5479H56.4014C57.0258 14.5756 58.4837 13.0703 60.5391 13.0703ZM80.8965 12.8887C84.071 12.8887 85.2422 14.7315 85.2422 17.9492V26.2529H83.4727V18.3896C83.4726 16.2619 83.0304 14.498 80.6367 14.498C78.6332 14.4981 76.9945 16.2623 76.5 18.1826C76.3179 18.7536 76.2656 19.3763 76.2656 20.0771V26.2529H74.4961V18.3896C74.4961 16.4175 74.2101 14.498 71.7383 14.498C69.6049 14.498 67.9919 16.3397 67.4453 18.3379C67.3154 18.8828 67.2637 19.48 67.2637 20.0771V26.2529H65.4941V13.2002H67.2373V15.1465C67.2373 15.7172 67.1855 16.1846 67.1855 16.1846H67.2373C67.8617 14.4199 69.9432 12.8887 71.9727 12.8887C74.3925 12.8887 75.641 14.0044 76.0312 16.1582H76.083C76.7855 14.3937 78.6853 12.8889 80.8965 12.8887ZM97.8096 19.6357C95.7539 19.6357 91.6436 19.7135 91.6436 22.5938C91.6436 23.8135 92.6063 25.0586 94.5576 25.0586C97.0553 25.0584 98.5645 22.4637 98.5645 20.2061V19.6357H97.8096ZM42.8701 14.498C40.0601 14.498 37.7707 16.703 37.7705 19.6611C37.7705 22.6971 40.0599 24.9814 42.8701 24.9814C45.6803 24.9814 47.9697 22.6971 47.9697 19.6611C47.9695 16.7034 45.6801 14.4981 42.8701 14.498ZM1.84668 10.2158H0V8.00977H1.84668V10.2158Z" fill="#121514"/>
</svg>
