<svg width="114" height="41" viewBox="0 0 114 41" fill="none" xmlns="http://www.w3.org/2000/svg">
<path d="M32.3749 16.4248C32.65 16.1485 33.0963 16.148 33.372 16.4238L36.3886 19.4473C37.4899 20.5515 37.4899 22.342 36.3886 23.4463L20.6015 39.2715C19.5001 40.3751 17.7145 40.3751 16.6132 39.2715L0.826069 23.4463C-0.275356 22.342 -0.275356 20.5515 0.826069 19.4473L3.84267 16.4238C4.11835 16.1476 4.56553 16.148 4.84072 16.4248L18.1083 29.7686C18.3838 30.0456 18.8318 30.0456 19.1073 29.7686L32.3749 16.4248ZM51.4442 3.31738C51.8335 3.31738 52.1471 3.62938 52.1474 4.01953V19.7979C52.1477 20.7454 53.3863 21.1008 53.8856 20.2959C55.6269 17.49 57.3203 14.6534 59.0351 11.8311C59.1632 11.6204 59.3906 11.494 59.6366 11.4941L66.5175 11.498C67.0673 11.498 67.4055 12.1013 67.12 12.5723L59.4071 25.2764C59.3122 25.4326 59.3161 25.6298 59.4169 25.7822C62.222 30.0164 65.0273 34.2505 67.8309 38.4854C68.1416 38.9551 67.8053 39.5829 67.2431 39.583H60.3983C60.1624 39.5829 59.942 39.4646 59.8114 39.2676C57.8374 36.2889 55.7951 33.3449 53.8944 30.3184C53.39 29.5157 52.1474 29.8704 52.1474 30.8193V38.8721C52.1473 39.2624 51.8314 39.5791 51.4423 39.5791H45.0985C44.7092 39.5791 44.3936 39.275 44.3935 38.8848V4.01855C44.3935 3.62832 44.7073 3.31754 45.0966 3.31738H51.4442ZM76.2489 11.502C76.6383 11.502 76.954 11.8186 76.954 12.209V38.8721C76.9538 39.2623 76.6382 39.5781 76.2489 39.5781H69.9052C69.5159 39.5781 69.1993 39.2623 69.1991 38.8721V12.209C69.1991 11.8188 69.5152 11.5022 69.9042 11.502H76.2489ZM87.1093 2.14258C87.4987 2.14258 87.8143 2.45927 87.8143 2.84961V38.8721C87.8141 39.2623 87.4986 39.5781 87.1093 39.5781H80.7655C80.3764 39.5781 80.0606 39.2623 80.0604 38.8721V2.84961C80.0604 2.45927 80.3763 2.14259 80.7655 2.14258H87.1093ZM109.468 11.502C112.064 11.5021 114.168 13.6117 114.168 16.2139V38.8721C114.168 39.2623 113.852 39.5781 113.463 39.5781H107.119C106.73 39.5781 106.414 39.2623 106.414 38.8721V20.4785C106.414 19.8282 105.887 19.3008 105.238 19.3008H99.8417C99.1931 19.301 98.6671 19.8284 98.6669 20.4785V38.8721C98.6667 39.2623 98.3511 39.5781 97.9618 39.5781H91.6181C91.2288 39.5781 90.9132 39.2623 90.913 38.8721V16.2139C90.9131 13.6116 93.0173 11.502 95.6132 11.502H109.468ZM16.6132 3.62305C17.7146 2.51896 19.5009 2.51896 20.6024 3.62305L30.1776 13.2227C30.4528 13.4983 30.4531 13.9446 30.1786 14.2207L25.6854 18.7402C25.4101 19.0171 24.9628 19.017 24.6874 18.7402L19.1073 13.1289C18.8318 12.8518 18.3838 12.8518 18.1083 13.1289L12.5292 18.7402C12.2536 19.0173 11.8057 19.0173 11.5302 18.7402L7.03701 14.2207C6.76244 13.9446 6.76295 13.4974 7.03798 13.2217L16.6132 3.62305ZM73.079 0.0996094C75.4328 0.0996094 77.3436 2.01357 77.3436 4.375C77.3434 6.73623 75.4327 8.64941 73.079 8.64941C70.7253 8.64937 68.8146 6.7362 68.8143 4.375C68.8143 2.0136 70.7252 0.0996544 73.079 0.0996094Z" fill="#121514"/>
</svg>
