<svg width="174" height="41" viewBox="0 0 174 41" fill="none" xmlns="http://www.w3.org/2000/svg">
<path d="M21.4813 2.26288C23.31 0.921785 25.1644 0.600124 27.0458 1.29706L27.6903 1.53827C29.4643 2.18079 30.4574 3.83175 30.6737 6.48846C30.8898 9.14532 30.701 11.9233 30.1102 14.8215C29.9213 15.8143 30.0093 16.6391 30.3719 17.2971C30.7346 17.9548 31.3737 18.4712 32.288 18.8469C34.5184 19.7869 36.5755 20.8735 38.4569 22.1076L38.455 22.1037C40.3346 23.3379 41.1147 24.5608 40.7928 25.7678L40.4296 27.0949C40.1606 28.0078 39.0639 28.6862 37.1434 29.1281C35.2211 29.5701 32.7081 29.6909 29.6044 29.4904C28.2697 29.4037 26.8856 29.2471 25.4589 29.0295C24.8171 30.4319 24.1762 31.6931 23.536 32.8117C21.9236 35.6828 20.2754 37.8491 18.5966 39.3127C16.9162 40.776 15.3105 41.2514 13.7782 40.7414L12.8114 40.4201C11.0917 39.8574 9.96272 38.5352 9.42468 36.4562C8.88667 34.3774 8.71132 32.1303 8.90027 29.715C9.03477 27.9165 8.83378 26.4474 8.29577 25.3068C7.75774 24.1679 6.80411 23.1801 5.43347 22.3488C4.06285 21.5432 2.75843 20.5704 1.52234 19.4299C0.286407 18.2893 -0.196859 17.2507 0.0721404 16.3107L0.393429 15.1428C0.662509 14.123 1.72504 13.4461 3.57898 13.1096C5.43487 12.7746 7.96074 12.8072 11.16 13.2101C11.8324 13.3053 12.5541 13.4209 13.3202 13.5568C14.2787 11.5323 15.3656 9.56537 16.5829 7.65643C18.0198 5.40252 19.6528 3.60573 21.4813 2.26288ZM19.5467 27.8264C17.5037 27.3164 15.8776 27.2357 14.6688 27.5842C13.4599 27.9325 12.7604 28.7251 12.5731 29.9592C12.3041 31.6487 12.2306 33.2586 12.3514 34.7883C12.4723 36.3182 12.9222 37.6348 13.702 38.7346C14.8307 38.8687 16.1217 38.2768 17.5721 36.9631C19.0227 35.6473 20.4478 33.7957 21.8456 31.4074C22.3375 30.5728 22.8282 29.6564 23.3202 28.6672C22.0943 28.4325 20.8374 28.1527 19.5467 27.8264ZM144.526 14.341C149.807 14.341 153.799 18.2049 153.799 24.1223C153.799 24.6458 153.76 25.2103 153.72 25.8137H138.843C139.366 28.8732 141.744 30.4426 144.688 30.4426C146.825 30.4425 148.8 29.4356 149.849 27.7053L152.993 29.2746C151.34 32.4124 148.034 34.1037 144.526 34.1037C139.164 34.1035 134.892 30.1192 134.891 24.1613C134.891 18.2033 139.244 14.3392 144.526 14.339V14.341ZM82.5214 14.339C85.2625 14.3391 87.8436 15.5067 89.0526 17.6398V14.8215H93.0048V33.6193H89.0526V30.4387C87.842 32.6129 85.2622 34.1017 82.3593 34.1017C77.4405 34.1015 73.208 29.7944 73.2079 24.2004C73.2079 18.606 77.1989 14.339 82.5214 14.339ZM125.216 14.339C128.723 14.339 132.513 16.0288 132.513 20.0949H128.724C128.642 18.645 127.19 17.6789 125.175 17.6789C122.999 17.679 121.709 18.4851 121.709 19.9738C121.709 21.1008 122.435 21.8254 124.007 22.1076L128.119 22.8723L128.117 22.8713C131.585 23.5156 133.157 25.1658 133.157 27.9025C133.157 31.6474 129.85 34.1017 125.296 34.1017C120.741 34.1017 117.476 31.8887 117.314 27.8635H120.983C121.143 29.5939 122.758 30.7619 125.338 30.7619C127.916 30.7618 129.207 29.8761 129.207 28.2258C129.207 27.1786 128.602 26.5342 126.787 26.1721L122.997 25.4474C119.41 24.764 117.757 22.9133 117.757 20.0949C117.757 16.634 120.862 14.3391 125.216 14.339ZM65.871 27.1389V7.97967H69.9032V33.6213H65.3876L53.7362 14.4211V33.6213H49.705V7.97967H54.3407L65.871 27.1389ZM107.116 14.339C111.873 14.3391 114.655 17.5196 114.655 22.8723V33.6193H110.703V23.1135C110.703 20.0539 108.89 18.2033 106.43 18.2033C103.969 18.2034 100.986 19.6122 100.986 23.5168V33.6193H97.035V14.8215H100.986V17.7199C102.074 15.3861 105.098 14.3391 107.114 14.339H107.116ZM166.784 14.339C171.541 14.3391 174.323 17.5195 174.323 22.8723V33.6193H170.372V23.1135C170.372 20.0539 168.558 18.2033 166.098 18.2033C163.637 18.2034 160.654 19.6122 160.654 23.5168V33.6193H156.703V14.8215H160.654V17.7199C161.743 15.3862 164.767 14.339 166.783 14.339H166.784ZM82.9657 18.0412C79.7409 18.0412 77.201 20.8192 77.201 24.2004C77.2011 27.5813 79.7393 30.3996 83.0458 30.3996H83.0477C86.1906 30.3995 89.0134 27.8226 89.0135 24.2004C89.0135 20.5778 85.9896 18.0412 82.9657 18.0412ZM32.0458 21.0637C31.0771 20.6354 30.231 20.5882 29.5057 20.923C28.7805 21.2579 28.2286 21.9482 27.8524 22.9953C27.5733 23.8194 27.279 24.6283 26.9725 25.4269C28.1472 25.6394 29.3201 25.8285 30.493 25.9933C33.8387 26.4641 36.48 26.3502 38.4159 25.6515C37.8778 24.2305 35.7541 22.7006 32.0458 21.0637ZM16.4833 16.3537C15.7292 18.232 15.7111 19.8486 16.4227 21.2033C17.1344 22.5597 18.4723 23.4913 20.4335 24.0012H20.4325C21.9409 24.387 23.448 24.7306 24.953 25.0383C25.3208 24.1271 25.67 23.1936 25.9969 22.2297C26.3459 21.2371 26.3322 20.3835 25.9559 19.673C25.5797 18.9625 24.8809 18.46 23.8592 18.1642C21.4416 17.4401 19.0288 16.8157 16.6229 16.2922C16.5874 16.2854 16.5531 16.2782 16.5175 16.2697C16.5073 16.2986 16.4953 16.3266 16.4833 16.3537ZM144.568 18.0021C141.744 18.0021 139.447 19.4914 138.883 22.631H149.891C149.486 19.6937 147.391 18.0022 144.568 18.0021ZM10.5565 15.2668C6.95581 14.9456 4.32201 15.16 2.65515 15.9113C3.21867 16.6099 3.91836 17.2386 4.75085 17.8029C6.39051 18.9826 7.93691 19.2588 9.38757 18.6281H9.38855C10.6264 18.091 11.6383 17.0485 12.4266 15.5051C11.7575 15.4031 11.132 15.3229 10.5565 15.2668ZM26.078 3.19061C24.2239 3.7006 22.4636 5.27685 20.7967 7.9201V7.92206C19.5044 9.96871 18.3533 12.1174 17.3368 14.3664C19.6252 14.8713 21.9206 15.452 24.2225 16.1115C25.2969 16.4074 26.177 16.3601 26.8632 15.9709C27.5493 15.5833 27.9847 14.8525 28.1737 13.7785C28.55 11.5227 28.6304 9.28863 28.4159 7.07538C28.2014 4.86211 27.4215 3.56629 26.078 3.19061Z" fill="#121514"/>
</svg>
