<svg width="148" height="41" viewBox="0 0 148 41" fill="none" xmlns="http://www.w3.org/2000/svg">
<path d="M40.2139 35.9756L35.7471 40.4189L31.2793 35.9756L35.7471 31.5322L40.2139 35.9756ZM8.94727 35.9678L4.47949 40.4111L0.0117188 35.9678L4.47949 31.5244L8.94727 35.9678ZM56.3779 22.4199C61.4196 22.4201 64.7139 26.0173 64.7139 31.3877C64.7137 36.7329 61.4195 40.3797 56.3779 40.3799C51.3362 40.3799 48.0412 36.733 48.041 31.3877C48.041 26.0172 51.3361 22.4199 56.3779 22.4199ZM69.7148 28.9375H69.7139V40.0195H66.0557V22.8193H69.7148V28.9375ZM80.4688 40.0195H76.5176L72.917 34.0908V27.8438L76.7373 34.1221H76.8105V22.8193H80.4688V40.0195ZM94.3457 26.0137H86.1582V29.8711H93.5967V32.7461H86.1582V36.8252H94.5947V40.0195H82.415V22.8193H94.3457V26.0137ZM29.0508 11.5283L33.5176 15.9727L37.9854 20.416L33.5176 24.8594L29.0508 29.3037L20.1152 38.1904L11.1797 29.3037L6.71289 24.8594L2.24512 20.416L6.71289 15.9727L11.1797 11.5283L20.1152 2.6416L29.0508 11.5283ZM56.3779 25.6416C53.5075 25.6416 51.8848 27.8906 51.8848 31.3877C51.8849 34.8595 53.5076 37.1572 56.3779 37.1572C59.2476 37.157 60.87 34.8594 60.8701 31.3877C60.8701 27.8908 59.2477 25.6418 56.3779 25.6416ZM15.6475 15.9727L11.1807 20.416L15.6475 24.8594L20.1152 29.3037L24.583 24.8594L29.0508 20.416L20.1152 11.5293L15.6475 15.9727ZM56.1777 0.419922C60.1215 0.419922 63.1915 2.36849 63.541 6.71484H59.8965C59.3724 4.54164 57.9997 3.64258 56.1777 3.64258C53.1328 3.64262 51.8848 6.11544 51.8848 9.3877C51.8848 12.6598 53.1077 15.1572 56.1777 15.1572C57.9747 15.1572 59.3724 14.2584 59.8965 12.0605H63.541C63.1914 16.4316 60.1214 18.3799 56.1777 18.3799C51.2357 18.3798 48.0411 15.0577 48.041 9.3877C48.041 3.74245 51.2356 0.419957 56.1777 0.419922ZM90.4775 0.419922C95.5193 0.419988 98.8135 4.01724 98.8135 9.3877C98.8134 14.733 95.5192 18.3798 90.4775 18.3799C85.4358 18.3799 82.1407 14.7331 82.1406 9.3877C82.1406 4.01719 85.4357 0.419922 90.4775 0.419922ZM120.677 11.2109C120.677 13.8086 121.975 15.1328 124.121 15.1328C126.268 15.1328 127.54 13.8086 127.54 11.2109V0.644531H131.31V11.4854C131.31 16.1564 128.364 18.3799 124.121 18.3799C119.828 18.3799 116.908 16.1564 116.908 11.4854V0.644531H120.677V11.2109ZM140.611 0.419922C144.604 0.420011 147.449 2.21838 147.449 5.79004H143.605C143.655 4.21676 142.358 3.51771 140.661 3.51758C138.665 3.51758 137.915 4.54123 137.915 5.61523C137.915 6.41455 138.34 7.26426 139.912 7.53906L142.258 7.98828C146.351 8.76264 147.924 10.3366 147.924 12.9844C147.924 16.7561 144.804 18.3798 140.836 18.3799C136.368 18.3799 133.523 16.2568 133.522 12.4102H137.391C137.466 13.9837 138.465 15.2822 140.86 15.2822C142.882 15.2822 143.955 14.4333 143.955 13.0098C143.955 11.8108 143.157 11.2109 141.584 10.9111L139.063 10.4365C136.318 9.88697 133.997 8.63804 133.997 5.46582C133.997 2.11864 136.692 0.419922 140.611 0.419922ZM108.104 0.644531C112.746 0.644531 114.767 3.06732 114.768 6.48926C114.768 8.98714 113.694 10.9363 111.273 11.8105L114.942 18.1299H111.248L107.986 12.4102V9.0625C110.027 9.05996 110.924 8.03603 110.924 6.48926C110.924 4.91579 110.025 3.8916 107.979 3.8916H104.784V7.79395H104.783V12.7412H104.784V18.1299H101.04V0.644531H108.104ZM69.8223 7.89551H69.8232V10.9424H69.8223V18.0195H66.0566V0.819336H69.8223V7.89551ZM80.4678 18.0195H76.7021V10.9424H73.0264V7.89551H76.7021V0.819336H80.4678V18.0195ZM90.4775 3.64258C87.6071 3.64258 85.9844 5.89061 85.9844 9.3877C85.9845 12.8596 87.6072 15.1572 90.4775 15.1572C93.3474 15.1572 94.9696 12.8596 94.9697 9.3877C94.9697 5.89067 93.3475 3.64265 90.4775 3.64258ZM8.93555 4.86621L4.46777 9.30957L0 4.86621L4.46777 0.422852L8.93555 4.86621ZM40.2197 4.86328L35.752 9.30664L31.2842 4.86328L35.752 0.419922L40.2197 4.86328Z" fill="#121514"/>
</svg>
