<svg width="157" height="33" viewBox="0 0 157 33" fill="none" xmlns="http://www.w3.org/2000/svg">
<path d="M115.403 27.0664C115.331 27.2871 115.629 27.5556 115.629 27.6299V32.585C115.629 33.0529 114.821 32.9231 114.615 32.9229H109.882L109.543 32.585V27.6299C109.543 27.5556 109.841 27.2871 109.769 27.0664H115.403ZM5.86035 27.4043V32.9229H0V27.4043L0.337891 27.0664H5.52246L5.86035 27.4043ZM101.993 27.0664C102.033 27.0686 102.39 27.4137 102.439 27.5215C102.681 28.0375 102.601 32.9206 102.331 32.9229H55.1104L54.7715 32.585V27.4043L55.1104 27.0664H101.993ZM47.5586 19.8594H0.337891L0 19.5215V1.27734L0.337891 0.939453H47.5586V19.8594ZM102.331 0.939453C102.259 1.16018 102.557 1.4286 102.557 1.50293V19.5215L102.218 19.8594H55.1104L54.7715 19.5215V14.3408L55.1104 14.0029H96.4707V6.7959H55.1104L54.7715 6.45801V1.27734L55.1104 0.939453H102.331ZM157.328 1.27734V19.5215L156.989 19.8594H109.882L109.543 19.5215V1.27734L109.882 0.939453H156.989L157.328 1.27734ZM5.86035 7.13379V13.665L6.19824 14.0029H41.3604L41.6982 13.665V7.13379L41.3604 6.7959H6.19824L5.86035 7.13379ZM115.629 14.0029H151.242V6.7959H115.629V14.0029Z" fill="#121514"/>
</svg>
