<?xml version="1.0" encoding="UTF-8"?>
<svg id="ARTWORK" xmlns="http://www.w3.org/2000/svg" viewBox="0 0 1080 1080">
  <defs>
    <style>
      .cls-1 {
        fill: #fff;
      }

      .cls-1, .cls-2 {
        stroke: #000;
        stroke-linecap: round;
        stroke-linejoin: round;
        stroke-width: 4px;
      }

      .cls-2 {
        fill: #00e676;
      }
    </style>
  </defs>
  <g>
    <polygon class="cls-1" points="575.69 313.37 789.79 436.98 1075.29 272.16 861.17 148.55 575.69 313.37"/>
    <polygon class="cls-1" points="1075.29 272.17 1075.29 436.98 896.86 540 789.81 478.2 789.79 478.19 789.79 436.98 789.81 436.98 1075.29 272.17"/>
    <path class="cls-1" d="M575.68,354.58l-35.68-20.6-35.68,20.6-178.42,103,107.05,61.81,107.05,61.8,107.05-61.8,107.05-61.81-178.42-103ZM636.16,471.44c-4.51,10.46-13.75,19.53-26.07,26.62-23.79,13.72-59.08,20.1-94.09,15.07-18.12-2.61-33.81-7.95-46.1-15.07-23.73-13.75-34.78-34.1-26.07-54.31,8.1-18.78,31.42-33.06,60.48-39.55,18.39-4.11,39.08-5.09,59.65-2.13,4.03.58,7.93,1.29,11.72,2.13,46.04,10.22,72.72,38.91,60.48,67.24Z"/>
    <polygon class="cls-1" points="789.81 436.98 789.81 478.2 789.79 478.19 754.11 498.79 754.11 457.59 575.68 354.58 575.68 313.37 789.79 436.98 789.81 436.98"/>
  </g>
  <g>
    <polygon class="cls-1" points="504.31 313.37 290.21 436.98 4.71 272.16 218.83 148.55 504.31 313.37"/>
    <polygon class="cls-1" points="290.21 436.98 290.21 478.19 290.19 478.2 183.14 540 4.71 436.98 4.71 272.17 290.19 436.98 290.21 436.98"/>
    <polygon class="cls-1" points="504.32 313.37 504.32 354.58 325.89 457.59 325.89 498.79 290.21 478.19 290.19 478.2 290.19 436.98 290.21 436.98 504.32 313.37"/>
  </g>
  <g>
    <polygon class="cls-1" points="754.11 457.59 754.11 498.79 682.74 540 575.68 601.8 575.68 725.42 540 746.02 540 581.19 647.05 519.4 754.11 457.59"/>
    <polygon class="cls-1" points="540 581.19 539.98 746.02 504.32 725.44 504.32 601.8 397.26 540 325.89 498.79 325.89 457.59 432.95 519.4 540 581.19"/>
  </g>
  <g>
    <polygon class="cls-2" points="218.82 766.61 218.82 931.44 4.71 807.84 4.71 643.02 218.82 766.61"/>
    <polygon class="cls-2" points="504.32 601.8 504.32 766.63 218.82 931.44 218.82 766.61 397.25 663.61 504.32 601.8"/>
    <polygon class="cls-2" points="504.32 601.8 397.25 663.61 218.82 766.61 4.71 643.02 183.14 540 290.19 478.2 290.21 478.19 325.89 498.79 397.26 540 504.32 601.8"/>
  </g>
  <g>
    <polygon class="cls-1" points="1075.29 643.02 1075.29 807.84 861.18 931.44 861.18 766.61 1075.29 643.02"/>
    <polygon class="cls-1" points="861.18 766.61 861.18 931.44 575.68 766.63 575.68 601.8 682.75 663.61 861.18 766.61"/>
    <polygon class="cls-1" points="1075.29 643.02 861.18 766.61 682.75 663.61 575.68 601.8 682.74 540 754.11 498.79 789.79 478.19 789.81 478.2 896.86 540 1075.29 643.02"/>
  </g>
  <path class="cls-1" d="M636.16,471.44c-4.51,10.46-13.75,19.53-26.07,26.62-23.79,13.72-59.08,20.1-94.09,15.07-18.12-2.61-33.81-7.95-46.1-15.07-23.73-13.75-34.78-34.1-26.07-54.31,8.1-18.78,31.42-33.06,60.48-39.55,18.39-4.11,39.08-5.09,59.65-2.13,4.03.58,7.93,1.29,11.72,2.13,46.04,10.22,72.72,38.91,60.48,67.24Z"/>
</svg>