<?xml version="1.0" encoding="UTF-8"?>
<svg id="ARTWORK" xmlns="http://www.w3.org/2000/svg" viewBox="0 0 1080 1080">
  <defs>
    <style>
      .cls-1 {
        fill: #fff;
      }

      .cls-1, .cls-2 {
        stroke: #000;
        stroke-linecap: round;
        stroke-linejoin: round;
        stroke-width: 4px;
      }

      .cls-2 {
        fill: #00e676;
      }
    </style>
  </defs>
  <g>
    <path class="cls-1" d="M405.43,639.39c0-11.98-8.41-26.55-18.79-32.54l-97-56c-5.19-3-9.89-3.28-13.29-1.32,0,0-67.28,38.85-67.28,38.85-3.4,1.96-5.5,6.17-5.5,12.16v111.99c0,4.64,1.26,9.67,3.41,14.44,3.4,7.54,9.02,14.43,15.38,18.1l96.99,56c5.19,3,9.88,3.28,13.28,1.32,0,0,67.29-38.84,67.29-38.84,3.4-1.96,5.5-6.17,5.5-12.16v-112Z"/>
    <g>
      <path class="cls-1" d="M203.57,600.54v111.99c0,11.98,8.41,26.55,18.79,32.54l96.99,56c10.38,5.99,18.79,1.13,18.79-10.85v-111.99c0-11.98-8.41-26.55-18.79-32.54l-96.99-56c-10.38-5.99-18.79-1.13-18.79,10.85Z"/>
      <path class="cls-1" d="M203.57,600.54v111.99c0,11.98,8.41,26.55,18.79,32.54l96.99,56c10.38,5.99,18.79,1.13,18.79-10.85v-111.99c0-11.98-8.41-26.55-18.79-32.54l-96.99-56c-10.38-5.99-18.79-1.13-18.79,10.85Z"/>
    </g>
  </g>
  <g>
    <path class="cls-1" d="M640.93,775.35c0-11.98-8.41-26.55-18.79-32.54l-97-56c-5.19-3-9.89-3.28-13.29-1.32,0,0-67.28,38.85-67.28,38.85-3.4,1.96-5.5,6.17-5.5,12.16v111.99c0,4.64,1.26,9.67,3.41,14.44,3.4,7.54,9.02,14.43,15.38,18.1l96.99,56c5.19,3,9.88,3.28,13.28,1.32,0,0,67.29-38.84,67.29-38.84,3.4-1.96,5.5-6.17,5.5-12.16v-112Z"/>
    <g>
      <path class="cls-1" d="M439.07,736.5v111.99c0,11.98,8.41,26.55,18.79,32.54l96.99,56c10.38,5.99,18.79,1.13,18.79-10.85v-111.99c0-11.98-8.41-26.55-18.79-32.54l-96.99-56c-10.38-5.99-18.79-1.13-18.79,10.85Z"/>
      <path class="cls-1" d="M439.07,736.5v111.99c0,11.98,8.41,26.55,18.79,32.54l96.99,56c10.38,5.99,18.79,1.13,18.79-10.85v-111.99c0-11.98-8.41-26.55-18.79-32.54l-96.99-56c-10.38-5.99-18.79-1.13-18.79,10.85Z"/>
    </g>
  </g>
  <g>
    <path class="cls-1" d="M876.43,911.31c0-11.98-8.41-26.55-18.79-32.54l-97-56c-5.19-3-9.89-3.28-13.29-1.32,0,0-67.28,38.85-67.28,38.85-3.4,1.96-5.5,6.17-5.5,12.16v111.99c0,4.64,1.26,9.67,3.41,14.44,3.4,7.54,9.02,14.43,15.38,18.1l96.99,56c5.19,3,9.88,3.28,13.28,1.32,0,0,67.29-38.84,67.29-38.84,3.4-1.96,5.5-6.17,5.5-12.16v-112Z"/>
    <g>
      <path class="cls-1" d="M674.57,872.46v111.99c0,11.98,8.41,26.55,18.79,32.54l96.99,56c10.38,5.99,18.79,1.13,18.79-10.85v-111.99c0-11.98-8.41-26.55-18.79-32.54l-96.99-56c-10.38-5.99-18.79-1.13-18.79,10.85Z"/>
      <path class="cls-1" d="M674.57,872.46v111.99c0,11.98,8.41,26.55,18.79,32.54l96.99,56c10.38,5.99,18.79,1.13,18.79-10.85v-111.99c0-11.98-8.41-26.55-18.79-32.54l-96.99-56c-10.38-5.99-18.79-1.13-18.79,10.85Z"/>
    </g>
  </g>
  <g>
    <path class="cls-2" d="M405.43,367.47c0-11.98-8.41-26.55-18.79-32.54l-97-56c-5.19-3-9.89-3.28-13.29-1.32,0,0-67.28,38.85-67.28,38.85-3.4,1.96-5.5,6.17-5.5,12.16v111.99c0,4.64,1.26,9.67,3.41,14.44,3.4,7.54,9.02,14.43,15.38,18.1l96.99,56c5.19,3,9.88,3.28,13.28,1.32,0,0,67.29-38.84,67.29-38.84,3.4-1.96,5.5-6.17,5.5-12.16v-112Z"/>
    <g>
      <path class="cls-2" d="M203.57,328.62v111.99c0,11.98,8.41,26.55,18.79,32.54l96.99,56c10.38,5.99,18.79,1.13,18.79-10.85v-111.99c0-11.98-8.41-26.55-18.79-32.54l-96.99-56c-10.38-5.99-18.79-1.13-18.79,10.85Z"/>
      <path class="cls-2" d="M203.57,328.62v111.99c0,11.98,8.41,26.55,18.79,32.54l96.99,56c10.38,5.99,18.79,1.13,18.79-10.85v-111.99c0-11.98-8.41-26.55-18.79-32.54l-96.99-56c-10.38-5.99-18.79-1.13-18.79,10.85Z"/>
    </g>
  </g>
  <g>
    <path class="cls-1" d="M640.93,503.43c0-11.98-8.41-26.55-18.79-32.54l-97-56c-5.19-3-9.89-3.28-13.29-1.32,0,0-67.28,38.85-67.28,38.85-3.4,1.96-5.5,6.17-5.5,12.16v111.99c0,4.64,1.26,9.67,3.41,14.44,3.4,7.54,9.02,14.43,15.38,18.1l96.99,56c5.19,3,9.88,3.28,13.28,1.32,0,0,67.29-38.84,67.29-38.84,3.4-1.96,5.5-6.17,5.5-12.16v-112Z"/>
    <g>
      <path class="cls-1" d="M439.07,464.58v111.99c0,11.98,8.41,26.55,18.79,32.54l96.99,56c10.38,5.99,18.79,1.13,18.79-10.85v-111.99c0-11.98-8.41-26.55-18.79-32.54l-96.99-56c-10.38-5.99-18.79-1.13-18.79,10.85Z"/>
      <path class="cls-1" d="M439.07,464.58v111.99c0,11.98,8.41,26.55,18.79,32.54l96.99,56c10.38,5.99,18.79,1.13,18.79-10.85v-111.99c0-11.98-8.41-26.55-18.79-32.54l-96.99-56c-10.38-5.99-18.79-1.13-18.79,10.85Z"/>
    </g>
  </g>
  <g>
    <path class="cls-1" d="M876.43,639.39c0-11.98-8.41-26.55-18.79-32.54l-97-56c-5.19-3-9.89-3.28-13.29-1.32,0,0-67.28,38.85-67.28,38.85-3.4,1.96-5.5,6.17-5.5,12.16v111.99c0,4.64,1.26,9.67,3.41,14.44,3.4,7.54,9.02,14.43,15.38,18.1l96.99,56c5.19,3,9.88,3.28,13.28,1.32,0,0,67.29-38.84,67.29-38.84,3.4-1.96,5.5-6.17,5.5-12.16v-112Z"/>
    <g>
      <path class="cls-1" d="M674.57,600.54v111.99c0,11.98,8.41,26.55,18.79,32.54l96.99,56c10.38,5.99,18.79,1.13,18.79-10.85v-111.99c0-11.98-8.41-26.55-18.79-32.54l-96.99-56c-10.38-5.99-18.79-1.13-18.79,10.85Z"/>
      <path class="cls-1" d="M674.57,600.54v111.99c0,11.98,8.41,26.55,18.79,32.54l96.99,56c10.38,5.99,18.79,1.13,18.79-10.85v-111.99c0-11.98-8.41-26.55-18.79-32.54l-96.99-56c-10.38-5.99-18.79-1.13-18.79,10.85Z"/>
    </g>
  </g>
  <g>
    <path class="cls-1" d="M405.43,95.55c0-11.98-8.41-26.55-18.79-32.54L289.64,7.01c-5.19-3-9.89-3.28-13.29-1.32,0,0-67.28,38.85-67.28,38.85-3.4,1.96-5.5,6.17-5.5,12.16v111.99c0,4.64,1.26,9.67,3.41,14.44,3.4,7.54,9.02,14.43,15.38,18.1l96.99,56c5.19,3,9.88,3.28,13.28,1.32,0,0,67.29-38.84,67.29-38.84,3.4-1.96,5.5-6.17,5.5-12.16v-112Z"/>
    <g>
      <path class="cls-1" d="M203.57,56.7v111.99c0,11.98,8.41,26.55,18.79,32.54l96.99,56c10.38,5.99,18.79,1.13,18.79-10.85v-111.99c0-11.98-8.41-26.55-18.79-32.54l-96.99-56c-10.38-5.99-18.79-1.13-18.79,10.85Z"/>
      <path class="cls-1" d="M203.57,56.7v111.99c0,11.98,8.41,26.55,18.79,32.54l96.99,56c10.38,5.99,18.79,1.13,18.79-10.85v-111.99c0-11.98-8.41-26.55-18.79-32.54l-96.99-56c-10.38-5.99-18.79-1.13-18.79,10.85Z"/>
    </g>
  </g>
  <g>
    <path class="cls-1" d="M640.93,231.51c0-11.98-8.41-26.55-18.79-32.54l-97-56c-5.19-3-9.89-3.28-13.29-1.32,0,0-67.28,38.85-67.28,38.85-3.4,1.96-5.5,6.17-5.5,12.16v111.99c0,4.64,1.26,9.67,3.41,14.44,3.4,7.54,9.02,14.43,15.38,18.1l96.99,56c5.19,3,9.88,3.28,13.28,1.32,0,0,67.29-38.84,67.29-38.84,3.4-1.96,5.5-6.17,5.5-12.16v-112Z"/>
    <g>
      <path class="cls-1" d="M439.07,192.66v111.99c0,11.98,8.41,26.55,18.79,32.54l96.99,56c10.38,5.99,18.79,1.13,18.79-10.85v-111.99c0-11.98-8.41-26.55-18.79-32.54l-96.99-56c-10.38-5.99-18.79-1.13-18.79,10.85Z"/>
      <path class="cls-1" d="M439.07,192.66v111.99c0,11.98,8.41,26.55,18.79,32.54l96.99,56c10.38,5.99,18.79,1.13,18.79-10.85v-111.99c0-11.98-8.41-26.55-18.79-32.54l-96.99-56c-10.38-5.99-18.79-1.13-18.79,10.85Z"/>
    </g>
  </g>
  <g>
    <path class="cls-1" d="M876.43,367.47c0-11.98-8.41-26.55-18.79-32.54l-97-56c-5.19-3-9.89-3.28-13.29-1.32,0,0-67.28,38.85-67.28,38.85-3.4,1.96-5.5,6.17-5.5,12.16v111.99c0,4.64,1.26,9.67,3.41,14.44,3.4,7.54,9.02,14.43,15.38,18.1l96.99,56c5.19,3,9.88,3.28,13.28,1.32,0,0,67.29-38.84,67.29-38.84,3.4-1.96,5.5-6.17,5.5-12.16v-112Z"/>
    <g>
      <path class="cls-1" d="M674.57,328.62v111.99c0,11.98,8.41,26.55,18.79,32.54l96.99,56c10.38,5.99,18.79,1.13,18.79-10.85v-111.99c0-11.98-8.41-26.55-18.79-32.54l-96.99-56c-10.38-5.99-18.79-1.13-18.79,10.85Z"/>
      <path class="cls-1" d="M674.57,328.62v111.99c0,11.98,8.41,26.55,18.79,32.54l96.99,56c10.38,5.99,18.79,1.13,18.79-10.85v-111.99c0-11.98-8.41-26.55-18.79-32.54l-96.99-56c-10.38-5.99-18.79-1.13-18.79,10.85Z"/>
    </g>
  </g>
</svg>