<?xml version="1.0" encoding="UTF-8"?>
<svg id="ARTWORK" xmlns="http://www.w3.org/2000/svg" viewBox="0 0 1080 1080">
  <defs>
    <style>
      .cls-1 {
        fill: #00e676;
        stroke: #000;
        stroke-linecap: round;
        stroke-linejoin: round;
        stroke-width: 4px;
      }
    </style>
  </defs>
  <path class="cls-1" d="M536.05,438.62l.03-81.44c34.6,12.13,60.82,35.15,60.81,78.22h0c0,1.13-.02,2.24-.06,3.34-24.75.78-46.84-.12-60.77-.12ZM535.92,728.75l.05-106.04c55.34,10.35,102.89,35.27,102.86,93.53h0c0,3.82-.22,7.49-.65,11.02-41.01,3.14-80.16,1.48-102.26,1.49ZM128.63,814.83l-18.01,107.97,117.66.04c21.9.04,43.44.42,64.59.55l-.02,150.22,90.31.05,72.21-41.71-.03,41.74,90.41.02,150.56-86.97.05-89.64c12.17-4.6,23.57-9.9,34.14-16.01,0,0,150.54-86.95,150.54-86.95,49.1-28.36,80.21-74.02,86.99-146.98,3.95-42.43-.92-76.18-12.98-102.93-20.56-45.6-62.01-70.83-116.24-83.95,0,0,8.2-4.74,8.2-4.74,47.38-27.36,76.22-73.4,69-147.39h-.03s0-.01,0-.01c-1.82-18.97-6.21-35.71-12.87-50.47-30.9-68.53-110.47-94.35-206.48-102.8l.06-148.52-90.4-.02-72.19,41.66.02-41.7-90.35-.04-150.58,86.88-.04,61.81-31.7-.02-150.6,86.89v96.56s66.75-1.24,65.64-.02c36.61.02,48.53,21.29,52,39.64l-.06,169.21v.65s-.1,209.37-.1,209.37l-99.71,57.57Z"/>
  <path class="cls-1" d="M379.02,460.97l-.11,237.02c-1.61,11.52-8.39,29.9-33.97,29.93,1.16,1.02-65.71-.04-65.71-.04l-18.01,107.96,117.65.04c21.89.04,43.43.42,64.59.55l-.02,150.21,90.3.05.05-148.62c24.8.52,48.79.73,72.22.72l-.1,147.93,90.41.02.08-149.94c151.99-8.66,258.38-46.9,271.64-189.63,10.71-114.92-43.33-166.22-129.59-186.97,52.43-26.67,85.22-73.68,77.57-152.03h-.03s0,0,0,0c-10.26-107.08-102.66-143-219.35-153.27l.06-148.52-90.4-.02-.05,144.6c-23.77-.01-48.06.45-72.2.92l.07-145.56-90.35-.04-.09,148.47c-19.57.39-38.79.75-57.53.76v-.46s-124.69-.09-124.69-.09v96.55s66.74-1.24,65.64-.02c36.61.02,48.53,21.29,51.99,39.63l-.06,169.19v.65ZM789.38,629.3c0,112.25-192.19,99.41-253.46,99.45l.1-199.02c61.28.04,253.41-17.51,253.36,99.57h0ZM747.44,348.49c-.06,102.12-160.35,90.15-211.39,90.13l.08-180.5c51.03.02,211.34-16.15,211.32,90.36h0Z"/>
  <line class="cls-1" x1="605.91" y1="986.72" x2="455.35" y2="1073.69"/>
  <line class="cls-1" x1="533.74" y1="986.69" x2="383.17" y2="1073.66"/>
  <line class="cls-1" x1="292.86" y1="1073.62" x2="443.43" y2="986.65"/>
  <line class="cls-1" x1="292.87" y1="923.39" x2="443.45" y2="836.44"/>
  <line class="cls-1" x1="110.62" y1="922.8" x2="261.22" y2="835.84"/>
  <line class="cls-1" x1="128.63" y1="814.83" x2="279.22" y2="727.88"/>
  <line class="cls-1" x1="261.43" y1="251.51" x2="110.84" y2="338.42"/>
  <line class="cls-1" x1="533.77" y1="880.5" x2="606.01" y2="838.79"/>
</svg>