<?xml version="1.0" encoding="UTF-8"?>
<svg id="ARTWORK" xmlns="http://www.w3.org/2000/svg" viewBox="0 0 1080 1080">
  <defs>
    <style>
      .cls-1 {
        fill: #fff;
      }

      .cls-1, .cls-2 {
        stroke: #000;
        stroke-linecap: round;
        stroke-linejoin: round;
        stroke-width: 4px;
      }

      .cls-2 {
        fill: #00e676;
      }
    </style>
  </defs>
  <g>
    <polygon class="cls-2" points="385 450.51 540 361.03 695 450.51 540 540 385 450.51"/>
    <polygon class="cls-2" points="540 540 540 718.97 695 629.49 695 450.51 540 540"/>
    <polygon class="cls-2" points="540 540 540 718.97 385 629.49 385 450.51 540 540"/>
  </g>
  <g>
    <polygon class="cls-1" points="772.5 271.54 888.75 204.42 1005 271.54 888.75 338.65 772.5 271.54"/>
    <polygon class="cls-1" points="888.75 338.65 888.75 472.88 1005 405.77 1005 271.54 888.75 338.65"/>
    <polygon class="cls-1" points="888.75 338.65 888.75 472.88 772.5 405.77 772.5 271.54 888.75 338.65"/>
  </g>
  <g>
    <polygon class="cls-1" points="75 271.54 191.25 204.42 307.5 271.54 191.25 338.65 75 271.54"/>
    <polygon class="cls-1" points="191.25 338.65 191.25 472.88 307.5 405.77 307.5 271.54 191.25 338.65"/>
    <polygon class="cls-1" points="191.25 338.65 191.25 472.88 75 405.77 75 271.54 191.25 338.65"/>
  </g>
  <g>
    <polygon class="cls-1" points="75 674.23 191.25 607.12 307.5 674.23 191.25 741.35 75 674.23"/>
    <polygon class="cls-1" points="191.25 741.35 191.25 875.58 307.5 808.46 307.5 674.23 191.25 741.35"/>
    <polygon class="cls-1" points="191.25 741.35 191.25 875.58 75 808.46 75 674.23 191.25 741.35"/>
  </g>
  <g>
    <polygon class="cls-1" points="772.5 674.23 888.75 607.12 1005 674.23 888.75 741.35 772.5 674.23"/>
    <polygon class="cls-1" points="888.75 741.35 888.75 875.58 1005 808.46 1005 674.23 888.75 741.35"/>
    <polygon class="cls-1" points="888.75 741.35 888.75 875.58 772.5 808.46 772.5 674.23 888.75 741.35"/>
  </g>
  <g>
    <polygon class="cls-1" points="423.75 875.58 540 808.46 656.25 875.58 540 942.69 423.75 875.58"/>
    <polygon class="cls-1" points="540 942.69 540 1076.92 656.25 1009.81 656.25 875.58 540 942.69"/>
    <polygon class="cls-1" points="540 942.69 540 1076.92 423.75 1009.81 423.75 875.58 540 942.69"/>
  </g>
  <g>
    <polygon class="cls-1" points="423.75 70.19 540 3.08 656.25 70.19 540 137.31 423.75 70.19"/>
    <polygon class="cls-1" points="540 137.31 540 271.54 656.25 204.42 656.25 70.19 540 137.31"/>
    <polygon class="cls-1" points="540 137.31 540 271.54 423.75 204.42 423.75 70.19 540 137.31"/>
  </g>
  <line class="cls-1" x1="307.5" y1="674.23" x2="385" y2="629.49"/>
  <line class="cls-1" x1="307.5" y1="405.77" x2="385" y2="450.51"/>
  <line class="cls-1" x1="540" y1="361.03" x2="540" y2="271.54"/>
  <line class="cls-1" x1="772.5" y1="405.77" x2="695" y2="450.51"/>
  <line class="cls-1" x1="772.5" y1="674.23" x2="695" y2="629.49"/>
  <line class="cls-1" x1="540" y1="718.97" x2="540" y2="808.46"/>
</svg>