<?xml version="1.0" encoding="UTF-8"?>
<svg id="ARTWORK" xmlns="http://www.w3.org/2000/svg" viewBox="0 0 1080 1080">
  <defs>
    <style>
      .cls-1 {
        fill: #fff;
      }

      .cls-1, .cls-2 {
        stroke: #000;
        stroke-linecap: round;
        stroke-linejoin: round;
        stroke-width: 4px;
      }

      .cls-2 {
        fill: #00e676;
      }
    </style>
  </defs>
  <g>
    <polygon class="cls-1" points="693.37 141.54 693.37 230.08 578.34 296.5 578.34 562.14 540 584.28 540 230.08 693.37 141.54"/>
    <polygon class="cls-1" points="540 230.08 540 584.28 501.66 562.14 501.66 207.94 540 230.08"/>
    <polygon class="cls-1" points="693.37 141.54 540 230.08 501.66 207.94 501.66 163.67 424.97 119.41 540 52.99 693.37 141.54"/>
  </g>
  <g>
    <polygon class="cls-2" points="885.1 296.5 885.1 385.05 770.05 451.45 770.05 540 731.71 517.86 731.71 385.05 885.1 296.5"/>
    <polygon class="cls-2" points="731.71 385.05 731.71 517.86 578.34 606.41 578.34 296.5 693.37 362.91 731.71 385.05"/>
    <polygon class="cls-2" points="885.1 296.5 731.71 385.05 693.37 362.91 578.34 296.5 693.37 230.08 731.71 207.94 885.1 296.5"/>
  </g>
  <g>
    <polygon class="cls-1" points="501.66 163.67 501.66 606.41 386.63 672.83 386.61 672.83 348.29 650.69 348.29 252.22 386.63 230.08 463.32 185.8 501.66 163.67"/>
    <polygon class="cls-1" points="348.29 252.22 348.29 650.69 309.95 672.81 309.95 230.08 348.29 252.22"/>
    <polygon class="cls-1" points="501.66 163.67 463.32 185.8 386.63 230.08 348.29 252.22 309.95 230.08 309.95 185.8 233.25 141.53 348.29 75.13 424.97 119.41 501.66 163.67"/>
  </g>
  <g>
    <polygon class="cls-1" points="309.95 185.8 309.95 672.83 194.9 739.23 194.9 783.5 156.56 805.64 156.56 274.36 194.9 252.22 271.6 207.94 309.95 185.8"/>
    <polygon class="cls-1" points="156.56 274.36 156.56 805.64 3.19 717.09 3.19 185.8 156.56 274.36"/>
    <polygon class="cls-1" points="309.95 185.8 271.6 207.94 194.9 252.22 156.56 274.36 3.19 185.8 156.56 97.27 233.25 141.53 309.95 185.8"/>
  </g>
  <g>
    <polygon class="cls-1" points="386.63 805.64 386.63 894.2 348.29 916.33 348.29 827.78 386.63 805.64"/>
    <polygon class="cls-1" points="348.29 827.78 348.29 916.33 194.9 827.78 194.9 739.23 233.25 761.37 348.29 827.78"/>
    <polygon class="cls-1" points="463.32 717.09 386.63 761.37 386.63 805.64 348.29 827.78 233.25 761.37 194.9 739.23 309.95 672.83 309.95 672.81 348.29 650.69 386.61 672.83 386.63 672.83 463.32 717.09"/>
  </g>
  <g>
    <polygon class="cls-1" points="1076.81 451.45 1076.81 717.09 923.44 805.64 923.44 540 1076.81 451.45"/>
    <polygon class="cls-1" points="923.44 540 923.44 805.64 885.1 783.5 885.1 606.41 770.05 540 770.05 451.45 885.1 517.86 923.44 540"/>
    <polygon class="cls-1" points="1076.81 451.45 923.44 540 885.1 517.86 770.05 451.45 885.1 385.05 923.44 362.91 1076.81 451.45"/>
  </g>
  <g>
    <polygon class="cls-1" points="885.1 606.41 885.1 827.78 731.71 916.33 731.71 694.95 770.05 672.81 885.1 606.41"/>
    <polygon class="cls-1" points="731.71 694.95 731.71 916.33 693.37 894.2 693.37 761.37 578.34 694.95 578.34 606.41 731.71 694.95"/>
    <polygon class="cls-1" points="885.1 606.41 770.05 672.81 731.71 694.95 578.34 606.41 731.71 517.86 770.05 540 885.1 606.41"/>
  </g>
  <g>
    <polygon class="cls-1" points="693.37 761.37 693.37 938.46 540 1027.01 540 849.92 578.34 827.78 693.37 761.37"/>
    <polygon class="cls-1" points="540 849.92 540 1027.01 386.63 938.46 386.63 761.37 424.97 783.5 501.66 827.78 540 849.92"/>
    <polygon class="cls-1" points="693.37 761.37 578.34 827.78 540 849.92 501.66 827.78 424.97 783.5 386.63 761.37 463.32 717.09 540 672.81 578.34 694.95 693.37 761.37"/>
  </g>
</svg>