<?xml version="1.0" encoding="UTF-8"?>
<svg id="ARTWORK" xmlns="http://www.w3.org/2000/svg" viewBox="0 0 1080 1080">
  <defs>
    <style>
      .cls-1 {
        fill: #fff;
      }

      .cls-1, .cls-2 {
        stroke: #000;
        stroke-linecap: round;
        stroke-linejoin: round;
        stroke-width: 4px;
      }

      .cls-2 {
        fill: #00e676;
      }
    </style>
  </defs>
  <g>
    <polygon class="cls-1" points="491.04 285.56 393.1 229.02 197.23 342.1 295.17 398.65 491.04 285.56"/>
    <polygon class="cls-1" points="295.17 398.65 295.17 1077.14 197.23 1020.6 197.23 342.1 295.17 398.65"/>
    <polygon class="cls-1" points="491.04 285.56 491.04 398.65 393.1 455.19 393.1 907.51 491.04 850.97 491.04 964.06 295.17 1077.14 295.17 398.65 491.04 285.56"/>
    <polygon class="cls-1" points="491.04 850.97 393.1 794.43 393.1 907.51 491.04 850.97"/>
  </g>
  <g>
    <polygon class="cls-2" points="882.77 59.4 784.83 2.86 588.96 115.94 686.9 172.49 882.77 59.4"/>
    <polygon class="cls-2" points="686.9 737.9 686.9 850.98 588.96 794.44 588.96 681.36 686.9 737.9"/>
    <polygon class="cls-2" points="686.9 172.49 686.9 285.57 588.96 229.02 588.96 115.94 686.9 172.49"/>
    <polygon class="cls-2" points="686.9 172.49 686.9 285.57 784.83 229.03 784.83 681.35 686.9 737.9 686.9 850.98 882.77 737.89 882.77 59.4 686.9 172.49"/>
    <polygon class="cls-2" points="686.9 624.81 686.9 285.57 784.83 229.03 784.83 681.35 686.9 624.81"/>
    <polygon class="cls-2" points="588.96 681.36 686.9 624.81 784.83 681.35 686.9 737.9 588.96 681.36"/>
  </g>
  <g>
    <path class="cls-1" d="M511.7,448.27c-36.06,20.82-65.29,71.45-65.29,113.09,0,20.82,7.31,35.45,19.12,42.27h0s77.27,44.6,77.27,44.6h0c11.81,6.82,28.14,5.83,46.16-4.57,13.97-8.07,26.92-20.61,37.54-35.37,16.78-23.33,27.75-52.21,27.75-77.71,0-20.82-7.31-35.44-19.12-42.27,0,0,0,0,0,0,0,0,0,0,0,0l-77.25-44.61h0c-11.82-6.82-28.14-5.84-46.17,4.57Z"/>
    <path class="cls-1" d="M588.97,643.65h0c-36.06,20.82-65.29,3.94-65.29-37.69h0c0-41.64,29.23-92.26,65.29-113.08h0c36.06-20.82,65.29-3.94,65.29,37.69h0c0,41.64-29.23,92.26-65.29,113.08Z"/>
    <path class="cls-1" d="M588.97,643.65h0c-36.06,20.82-65.29,3.94-65.29-37.69h0c0-41.64,29.23-92.26,65.29-113.08h0c36.06-20.82,65.29-3.94,65.29,37.69h0c0,41.64-29.23,92.26-65.29,113.08Z"/>
  </g>
</svg>