<?xml version="1.0" encoding="UTF-8"?>
<svg id="ARTWORK" xmlns="http://www.w3.org/2000/svg" viewBox="0 0 1080 1080">
  <defs>
    <style>
      .cls-1 {
        fill: #fff;
      }

      .cls-1, .cls-2 {
        stroke: #000;
        stroke-linecap: round;
        stroke-linejoin: round;
        stroke-width: 4px;
      }

      .cls-3 {
        fill-rule: evenodd;
      }

      .cls-2 {
        fill: #00e676;
      }
    </style>
  </defs>
  <g id="Layer_1">
    <g id="_1421344023328" data-name=" 1421344023328">
      <path class="cls-1" d="M666.08,332.76c-3.61,14.47-9.5,27.76-17.21,39.58-29.39,45.09-85.13,68.82-140.31,55.07-33.12-8.25-60.07-28.55-77.36-55.05-19.05-29.22-26.36-65.96-17.27-102.48,1.75-7.02,4.03-13.78,6.83-20.2,24.73-57.39,88.07-90.06,150.67-74.46,40.83,10.19,72.28,38.64,87.82,74.46,10.97,25.29,14.01,54.26,6.83,83.08Z"/>
    </g>
  </g>
  <g>
    <path class="cls-3" d="M486.07,268.76c-.53-1.43-.18-3.03.91-4.12l14.68-14.68c1.08-1.08,2.69-1.43,4.12-.91l31.31,11.5c.77.28,1.28,1.02,1.28,1.84v6.85c0,.52-.2,1.02-.57,1.38l-7.62,7.62c-.54.54-1.34.72-2.06.45l-8.41-3.1-9.24-3.4c-.78-.29-1.55.47-1.25,1.25l6.51,17.65c.27.72.09,1.52-.45,2.06l-6.78,6.78c-.76.76-.76,2,0,2.77l6.81,6.81c.54.54.72,1.34.45,2.06l-6.51,17.65c-.29.78.47,1.55,1.25,1.25l17.65-6.51c.72-.27,1.52-.09,2.06.45l7.58,7.58c.37.37.57.86.57,1.38v6.85c0,.82-.5,1.55-1.28,1.84l-31.27,11.53c-1.43.53-3.03.18-4.12-.91l-14.68-14.68c-1.08-1.08-1.43-2.69-.91-4.12l11.5-31.17c.32-.87.32-1.84,0-2.71l-11.53-31.27v.03Z"/>
    <path class="cls-3" d="M593.92,333.89c.53,1.43.18,3.03-.91,4.12l-14.68,14.68c-1.08,1.08-2.69,1.43-4.12.91l-31.31-11.5c-.77-.28-1.28-1.02-1.28-1.84v-6.85c0-.52.2-1.02.57-1.38l7.62-7.62c.54-.54,1.34-.72,2.06-.45l8.41,3.1,9.24,3.4c.78.29,1.55-.47,1.25-1.25l-6.51-17.65c-.27-.72-.09-1.52.45-2.06l6.78-6.78c.76-.76.76-2,0-2.77l-6.81-6.81c-.54-.54-.72-1.34-.45-2.06l6.51-17.65c.29-.78-.47-1.55-1.25-1.25l-17.65,6.51c-.72.27-1.52.09-2.06-.45l-7.58-7.58c-.37-.37-.57-.86-.57-1.38v-6.85c0-.82.52-1.55,1.28-1.84l31.27-11.53c1.43-.53,3.03-.18,4.12.91l14.68,14.68c1.08,1.08,1.43,2.69.91,4.12l-11.5,31.17c-.32.87-.32,1.84,0,2.71l11.53,31.27h0v-.03Z"/>
  </g>
  <path class="cls-1" d="M1013.74,659.32c-25.1,33.27-61.23,64.43-108.35,91.64-17.56,10.13-36.05,19.38-55.34,27.76-.02,45.8-30.3,91.58-90.83,126.52-121.07,69.92-317.39,69.92-438.46.02-60.53-34.94-90.81-80.76-90.83-126.54-19.28-8.38-37.78-17.63-55.34-27.76-47.12-27.21-83.25-58.37-108.35-91.64-82.45,109.17-46.34,241.01,108.35,330.32,201.79,116.5,529,116.5,730.79,0,154.68-89.32,190.79-221.15,108.35-330.32ZM850.06,539.94v.12s.08-.04.12-.06c-.04-.02-.08-.04-.12-.06ZM229.82,540s.08.04.12.06v-.12s-.08.04-.12.06Z"/>
  <path class="cls-1" d="M850.06,540.06c-.02,42.69-26.34,85.38-78.95,119.29-3.82-2.48-7.77-4.89-11.88-7.25-60.53-34.94-139.87-52.42-219.21-52.42,109.25,0,218.48-19.88,310.04-59.61Z"/>
  <path class="cls-1" d="M540,599.67c-79.36,0-158.7,17.48-219.23,52.44-4.11,2.36-8.06,4.78-11.88,7.25-52.63-33.92-78.94-76.61-78.95-119.3,91.56,39.74,200.81,59.61,310.06,59.61Z"/>
  <path class="cls-2" d="M229.82,540s.08.04.12.06v-.12s-.08.04-.12.06ZM850.06,539.94v.12s.08-.04.12-.06c-.04-.02-.08-.04-.12-.06ZM659.25,249.68c10.97,25.29,14.01,54.26,6.83,83.08-3.61,14.47-9.5,27.76-17.21,39.58,40.25,8.69,77.99,22.37,110.36,41.06,4.11,2.36,8.06,4.78,11.88,7.25,52.65-33.92,78.95-76.65,78.95-119.38-58-25.19-123.1-42.38-190.81-51.59ZM413.92,269.89c1.75-7.02,4.03-13.78,6.83-20.2-67.71,9.21-132.81,26.4-190.81,51.59-.02,42.73,26.31,85.46,78.97,119.4,3.82-2.46,7.77-4.87,11.86-7.23,32.39-18.71,70.15-32.39,110.42-41.08-19.05-29.22-26.36-65.96-17.27-102.48Z"/>
  <path class="cls-2" d="M1013.74,659.32c-25.1,33.27-61.23,64.43-108.35,91.64-17.56,10.13-36.05,19.38-55.34,27.76-183.14,79.49-436.98,79.49-620.12,0-19.28-8.38-37.78-17.63-55.34-27.76-47.12-27.21-83.25-58.37-108.35-91.64-57.33-75.9-57.33-162.74,0-238.65,25.1,33.25,61.23,64.41,108.35,91.62,17.52,10.11,35.98,19.34,55.22,27.71.04.02.08.04.12.06.02,42.69,26.32,85.38,78.95,119.3,3.82,2.46,7.77,4.87,11.88,7.23,121.07,69.88,317.39,69.88,438.46-.02,4.11-2.36,8.06-4.78,11.88-7.23,52.61-33.9,78.94-76.59,78.95-119.29.04-.02.08-.04.12-.06,19.24-8.37,37.7-17.59,55.22-27.71,47.12-27.21,83.25-58.37,108.35-91.62,57.33,75.9,57.33,162.74,0,238.65Z"/>
  <path class="cls-1" d="M905.4,90.35c-201.79-116.5-529-116.5-730.79,0C19.92,179.67-16.19,311.5,66.26,420.68c25.1,33.25,61.23,64.41,108.35,91.62,17.52,10.11,35.98,19.34,55.22,27.71.04-.02.08-.04.12-.06v.12c91.56,39.74,200.81,59.61,310.06,59.61h.02c109.25,0,218.48-19.88,310.04-59.61v-.12s.08.04.12.06c19.24-8.37,37.7-17.59,55.22-27.71,47.12-27.21,83.25-58.37,108.35-91.62,82.45-109.17,46.34-241.01-108.35-330.32ZM771.11,420.66c-3.82,2.46-7.77,4.87-11.88,7.23-60.53,34.96-139.87,52.44-219.23,52.44h-.02c-79.34,0-158.68-17.48-219.21-52.42-4.09-2.36-8.04-4.78-11.86-7.23-52.67-33.94-78.99-76.67-78.97-119.4.02-45.8,30.3-91.58,90.83-126.52,121.07-69.92,317.39-69.92,438.46-.02,60.53,34.94,90.81,80.76,90.83,126.54,0,42.73-26.31,85.46-78.95,119.38Z"/>
</svg>