<?xml version="1.0" encoding="UTF-8"?>
<svg id="ARTWORK" xmlns="http://www.w3.org/2000/svg" viewBox="0 0 1080 1080">
  <defs>
    <style>
      .cls-1 {
        fill: #fff;
      }

      .cls-1, .cls-2 {
        stroke: #000;
        stroke-linecap: round;
        stroke-linejoin: round;
        stroke-width: 4px;
      }

      .cls-2 {
        fill: #00e676;
      }
    </style>
  </defs>
  <path class="cls-1" d="M990.64,589.34c0-143.68-100.87-318.41-225.3-390.25l-.02-.02-.02-.02v.03l-112.67,65.03v-65.03l-112.65-65.05-112.67,65.05v65.03l-112.65-65.03c-124.43,71.84-225.32,246.57-225.32,390.25l.02.02,112.63,65.02-56.32,32.52v130.08l112.65,65.05,56.33-32.52v130.08h.02l.02.02c124.43,71.84,326.17,71.84,450.6,0l.02-.02v-130.08l56.33,32.52,112.67-65.05v-130.08l-56.33-32.52,112.65-65.03ZM540,773.28c-81.54,0-163.1-17.96-225.32-53.88,0-71.84,25.23-151.44,65.97-222.06,40.78-70.64,97.11-132.27,159.33-168.18h.02c62.22,35.9,118.55,97.54,159.33,168.18,40.76,70.62,65.99,150.22,65.99,222.06-62.22,35.92-143.78,53.88-225.32,53.88Z"/>
  <path class="cls-1" d="M765.32,719.41c-62.22,35.92-143.78,53.88-225.32,53.88s-163.1-17.96-225.32-53.88l122.29-70.6c15.57,26.97,41.64,47.83,74.24,55.97,52.71,13.13,105.99-11.12,131.85-55.95l122.26,70.59Z"/>
  <path class="cls-1" d="M540,329.17v141.17c-53.37-.03-101.94,36.1-115.42,90.23-7.76,31.14-2.49,62.46,12.39,88.23l-122.29,70.6c0-71.84,25.23-151.44,65.97-222.06,40.78-70.64,97.11-132.27,159.33-168.18h.02Z"/>
  <path class="cls-1" d="M655.42,618.12c15.9-63.75-22.9-128.32-86.65-144.22-9.62-2.41-19.28-3.56-28.77-3.56v-141.17c62.22,35.9,118.55,97.54,159.33,168.18,40.76,70.62,65.99,150.22,65.99,222.06l-122.26-70.59c5.4-9.38,9.61-19.66,12.36-30.7Z"/>
  <g>
    <polygon class="cls-2" points="1046.97 621.85 1046.97 882.03 821.66 1012.11 821.66 882.03 934.32 816.98 934.32 686.9 990.64 654.37 1046.97 621.85"/>
    <polygon class="cls-2" points="1046.97 621.85 990.64 654.37 934.32 686.9 877.99 654.37 990.64 589.34 1046.97 621.85"/>
    <polygon class="cls-2" points="934.32 816.98 821.66 882.03 765.32 849.51 877.99 784.46 934.32 816.98"/>
    <polygon class="cls-2" points="821.66 882.03 821.66 1012.11 765.32 979.59 765.32 849.51 821.66 882.03"/>
    <polygon class="cls-2" points="934.32 686.9 934.32 816.98 877.99 784.46 877.99 654.37 934.32 686.9"/>
  </g>
  <g>
    <polygon class="cls-1" points="258.33 882.03 258.33 1012.11 33.02 882.03 33.02 621.85 89.37 654.39 145.68 686.9 145.68 816.98 258.33 882.03"/>
    <polygon class="cls-1" points="202 654.37 145.68 686.9 89.37 654.39 33.02 621.85 89.35 589.34 89.37 589.36 202 654.37"/>
    <polygon class="cls-1" points="314.67 849.51 258.33 882.03 145.68 816.98 202 784.46 314.67 849.51"/>
    <polygon class="cls-1" points="314.67 849.51 314.67 979.59 258.33 1012.11 258.33 882.03 314.67 849.51"/>
    <polygon class="cls-1" points="202 654.37 202 784.46 145.68 816.98 145.68 686.9 202 654.37"/>
  </g>
  <g>
    <polygon class="cls-1" points="765.3 134.04 708.99 166.55 652.64 199.09 539.99 134.04 427.32 199.09 370.99 166.56 314.67 134.04 539.99 3.96 765.3 134.04"/>
    <polygon class="cls-1" points="765.3 134.04 765.3 199.09 652.64 264.12 652.64 199.09 708.99 166.55 765.3 134.04"/>
    <polygon class="cls-1" points="652.64 199.09 652.64 264.12 539.99 199.09 539.99 134.04 652.64 199.09"/>
    <polygon class="cls-1" points="427.32 199.09 427.32 264.12 314.67 199.09 314.67 134.04 370.99 166.56 427.32 199.09"/>
    <polygon class="cls-1" points="539.99 134.04 539.99 199.09 427.32 264.12 427.32 199.09 539.99 134.04"/>
  </g>
  <g id="Layer_1">
    <g id="_1421344023328" data-name=" 1421344023328">
      <path class="cls-1" d="M655.42,618.12c-2.75,11.04-6.95,21.32-12.36,30.7-25.85,44.83-79.14,69.09-131.85,55.95-32.61-8.14-58.67-29-74.24-55.97-14.88-25.77-20.15-57.09-12.39-88.23,13.48-54.13,62.05-90.26,115.42-90.23,9.49,0,19.15,1.15,28.77,3.56,63.75,15.9,102.55,80.47,86.65,144.22Z"/>
    </g>
  </g>
</svg>