<?xml version="1.0" encoding="UTF-8"?>
<svg id="ARTWORK" xmlns="http://www.w3.org/2000/svg" viewBox="0 0 1080 1080">
  <defs>
    <style>
      .cls-1 {
        fill: #fff;
      }

      .cls-1, .cls-2 {
        stroke: #000;
        stroke-linecap: round;
        stroke-linejoin: round;
        stroke-width: 4px;
      }

      .cls-2 {
        fill: #00e676;
      }
    </style>
  </defs>
  <polygon class="cls-1" points="772.1 138 540 272 307.9 138 540 3.99 772.1 138"/>
  <polygon class="cls-1" points="1004.21 540 1004.21 808 540 1076.01 772.1 942 772.1 673.99 1004.21 540"/>
  <polygon class="cls-1" points="307.9 673.99 307.9 942 75.79 808 75.79 540 307.9 673.99"/>
  <path class="cls-1" d="M772.1,673.99l-232.1,134.01-232.1-134.01,154.7-89.31c15.47,26.69,44.34,44.65,77.4,44.65s61.93-17.96,77.4-44.65l154.7,89.31Z"/>
  <polygon class="cls-1" points="540 808 540 1076.01 307.9 942 307.9 673.99 540 808"/>
  <polygon class="cls-1" points="772.1 673.99 772.1 942 540 1076.01 540 808 772.1 673.99"/>
  <g>
    <path class="cls-1" d="M772.1,406.01v267.99l-154.7-89.31c7.58-13.14,11.94-28.41,11.94-44.69,0-49.34-40-89.34-89.34-89.34v-178.66l232.1,134.01Z"/>
    <polygon class="cls-1" points="1004.21 272 772.1 406.01 540 272 772.1 138 1004.21 272"/>
    <polygon class="cls-1" points="1004.21 272 1004.21 540 772.1 673.99 772.1 406.01 1004.21 272"/>
  </g>
  <g>
    <path class="cls-2" d="M540,272v178.66c-49.34,0-89.34,40-89.34,89.34,0,16.28,4.36,31.55,11.94,44.69l-154.7,89.31v-267.99l232.1-134.01Z"/>
    <polygon class="cls-2" points="540 272 307.9 406.01 75.79 272 307.9 138 540 272"/>
    <polygon class="cls-2" points="307.9 406.01 307.9 673.99 75.79 540 75.79 272 307.9 406.01"/>
  </g>
  <path class="cls-1" d="M629.34,540c0,16.28-4.36,31.55-11.94,44.69-15.47,26.69-44.34,44.65-77.4,44.65s-61.93-17.96-77.4-44.65c-7.58-13.14-11.94-28.41-11.94-44.69,0-49.34,40-89.34,89.34-89.34s89.34,40,89.34,89.34Z"/>
</svg>