<?xml version="1.0" encoding="UTF-8"?>
<svg id="ARTWORK" xmlns="http://www.w3.org/2000/svg" viewBox="0 0 1080 1080">
  <defs>
    <style>
      .cls-1 {
        fill: none;
      }

      .cls-1, .cls-2, .cls-3 {
        stroke: #000;
        stroke-linecap: round;
        stroke-linejoin: round;
        stroke-width: 4px;
      }

      .cls-2 {
        fill: #fff;
      }

      .cls-3 {
        fill: #00e676;
      }
    </style>
  </defs>
  <circle class="cls-2" cx="540" cy="540" r="84.96"/>
  <g>
    <path class="cls-2" d="M592.09,849.83l205.51-118.61c0,93.88-32.96,159.83-86.24,190.58l-205.49,118.58h0c-53.26,30.74-126.83,26.29-208.09-20.63C135.23,925.9,3.46,697.67,3.46,509.98l205.42-118.66c0,187.72,131.79,415.99,294.36,509.85,27.11,15.65,53.37,26.58,78.31,33.05,6.87-24.84,10.54-53.06,10.54-84.39Z"/>
    <path class="cls-1" d="M592.09,849.83c0,187.69-131.77,263.77-294.32,169.92C135.23,925.9,3.46,697.67,3.46,509.98"/>
  </g>
  <g>
    <path class="cls-3" d="M487.91,230.17l-205.51,118.61c0-93.88,32.96-159.83,86.24-190.58l205.49-118.58h0c53.26-30.74,126.83-26.29,208.09,20.63,162.55,93.85,294.32,322.08,294.32,509.77l-205.42,118.66c0-187.72-131.79-415.99-294.36-509.85-27.11-15.65-53.37-26.58-78.31-33.05-6.87,24.84-10.54,53.06-10.54,84.39Z"/>
    <path class="cls-1" d="M487.91,230.17c0-187.69,131.77-263.77,294.32-169.92,162.55,93.85,294.32,322.08,294.32,509.77"/>
  </g>
</svg>