<?xml version="1.0" encoding="UTF-8"?>
<svg id="ARTWORK" xmlns="http://www.w3.org/2000/svg" viewBox="0 0 1080 1080">
  <defs>
    <style>
      .cls-1 {
        fill: #fff;
      }

      .cls-1, .cls-2 {
        stroke: #000;
        stroke-linecap: round;
        stroke-linejoin: round;
        stroke-width: 4px;
      }

      .cls-2 {
        fill: #00e676;
      }
    </style>
  </defs>
  <g>
    <path class="cls-1" d="M505.44,177.52l-207.36,119.72-207.36-119.72,122.35-70.63c7.44,40.19,42.67,70.63,85.02,70.63s77.58-30.44,85.02-70.63l122.35,70.63Z"/>
    <polygon class="cls-1" points="298.08 297.24 298.08 377.06 90.71 257.34 90.71 177.52 298.08 297.24"/>
    <polygon class="cls-1" points="298.08 377.06 298.08 935.74 90.71 816.01 90.71 257.34 298.08 377.06"/>
    <polygon class="cls-1" points="505.44 177.52 505.44 257.34 298.08 377.06 298.08 297.24 505.44 177.52"/>
    <path class="cls-1" d="M505.44,257.34v53.73c-30.55,13.34-51.91,43.81-51.91,79.29,0,5.41.5,10.69,1.45,15.82l-122.35,70.65v438.95l-34.56,19.96V377.06l207.36-119.72Z"/>
  </g>
  <path class="cls-1" d="M384.54,91.07c0,5.41-.5,10.69-1.45,15.82-7.44,40.19-42.67,70.63-85.02,70.63s-77.58-30.44-85.02-70.63c-.95-5.13-1.45-10.41-1.45-15.82,0-47.76,38.71-86.47,86.47-86.47s86.47,38.71,86.47,86.47Z"/>
  <g>
    <path class="cls-1" d="M989.29,177.52l-207.36,119.72-207.36-119.72,122.35-70.63c7.44,40.19,42.67,70.63,85.02,70.63s77.58-30.44,85.02-70.63l122.35,70.63Z"/>
    <path class="cls-1" d="M781.92,297.24v638.5l-34.56-19.96v-438.95l-122.35-70.65c.95-5.13,1.45-10.41,1.45-15.82,0-35.48-21.36-65.95-51.91-79.29v-133.55l207.36,119.72Z"/>
    <polygon class="cls-1" points="989.29 177.52 989.29 816.01 781.92 935.74 781.92 297.24 989.29 177.52"/>
  </g>
  <path class="cls-2" d="M747.36,476.82l-172.81,99.76-34.56,19.94-34.56-19.94-172.81-99.76,122.35-70.65c5.28,28.54,24.56,52.15,50.46,63.47,10.57,4.62,22.26,7.18,34.56,7.18s23.98-2.56,34.56-7.18c25.9-11.32,45.18-34.93,50.46-63.47l122.35,70.65Z"/>
  <polygon class="cls-2" points="540 596.53 540 676.35 505.44 656.39 332.64 556.63 332.64 476.82 505.44 576.59 540 596.53"/>
  <polygon class="cls-1" points="540 676.35 540 1075.4 332.64 955.68 332.64 556.63 505.44 656.39 540 676.35"/>
  <polygon class="cls-1" points="747.36 556.63 747.36 955.68 540 1075.4 540 676.35 574.56 656.39 747.36 556.63"/>
  <path class="cls-1" d="M626.47,390.36c0,5.41-.5,10.69-1.45,15.82-5.28,28.54-24.56,52.15-50.46,63.47-10.57,4.62-22.26,7.18-34.56,7.18s-23.98-2.56-34.56-7.18c-25.9-11.32-45.18-34.93-50.46-63.47-.95-5.13-1.45-10.41-1.45-15.82,0-35.48,21.36-65.95,51.91-79.29,10.57-4.62,22.26-7.18,34.56-7.18s23.98,2.56,34.56,7.18c30.55,13.34,51.91,43.81,51.91,79.29Z"/>
  <polyline class="cls-1" points="574.56 257.34 781.92 377.05 989.28 257.34"/>
  <polygon class="cls-2" points="747.36 476.82 747.36 556.63 574.56 656.39 540 676.35 540 596.53 574.56 576.59 747.36 476.82"/>
  <path class="cls-1" d="M868.39,91.07c0,5.41-.5,10.69-1.45,15.82-7.44,40.19-42.67,70.63-85.02,70.63s-77.58-30.44-85.02-70.63c-.95-5.13-1.45-10.41-1.45-15.82,0-47.76,38.71-86.47,86.47-86.47s86.47,38.71,86.47,86.47Z"/>
</svg>