<?xml version="1.0" encoding="UTF-8"?>
<svg id="ARTWORK" xmlns="http://www.w3.org/2000/svg" viewBox="0 0 1080 1080">
  <defs>
    <style>
      .cls-1 {
        fill: #fff;
      }

      .cls-1, .cls-2 {
        stroke: #000;
        stroke-linecap: round;
        stroke-linejoin: round;
        stroke-width: 4px;
      }

      .cls-2 {
        fill: #00e676;
      }
    </style>
  </defs>
  <g>
    <path class="cls-2" d="M924.44,450.02c-7.21-4.3-17.24-3.74-28.34,2.66-22,12.69-39.82,43.56-39.82,68.96,0,122.16-86.06,271.24-191.86,332.33l-10.83,6.24,38.98-67.5c15.54-26.91,15.54-56.04,0-65-7.78-4.49-17.96-3.1-28.15,2.79-10.2,5.88-20.39,16.26-28.17,29.72l-106.91,185.19c-.47.81-.94,1.63-1.38,2.46-.19.34-.36.69-.55,1.03-.23.47-.49.94-.72,1.41-.23.45-.47.92-.69,1.39-.17.34-.34.7-.5,1.05-.25.52-.49,1.05-.72,1.56-.13.3-.27.59-.41.91-.22.53-.45,1.06-.67,1.61-.13.28-.25.58-.36.88-.22.53-.41,1.05-.61,1.58-.13.31-.25.63-.36.95l-.52,1.46c-.13.36-.25.72-.38,1.08-.14.44-.28.89-.42,1.33-.13.41-.25.81-.38,1.22-.11.39-.22.77-.33,1.16-.13.47-.27.92-.39,1.39-.08.33-.16.66-.23.99-.13.52-.25,1.02-.38,1.53-.06.28-.13.56-.19.84-.11.55-.22,1.1-.33,1.63-.05.27-.09.52-.14.78-.09.55-.2,1.11-.28,1.66-.05.25-.08.5-.11.77-.08.53-.16,1.08-.22,1.63-.03.28-.06.56-.09.86-.05.49-.09.99-.14,1.49-.03.38-.05.75-.08,1.13-.02.39-.05.8-.06,1.19-.03.69-.05,1.36-.05,2.03v.52c0,.67.02,1.33.05,1.99.02.38.05.74.06,1.11.03.34.05.69.08,1.03.05.45.09.89.14,1.33.03.25.06.5.09.75.06.47.14.92.22,1.38.03.22.06.42.11.64.08.45.19.89.28,1.33.05.2.09.41.14.61.11.42.22.83.33,1.24.06.22.13.44.19.64.13.38.25.75.38,1.11.08.23.16.47.23.7.13.31.27.64.39.95.11.25.22.52.33.77.13.27.25.53.38.8.14.28.28.55.42.83.13.22.25.44.38.64.17.3.34.59.52.88.11.19.23.36.36.53.2.3.39.59.61.88.11.16.23.31.36.47.22.27.45.55.67.83.14.14.28.28.41.42.23.27.47.52.72.75.16.16.33.31.5.45.22.22.45.42.69.61.23.2.49.38.72.56.19.14.36.28.55.41.44.31.89.61,1.36.88l-71.28-41.12v-.02h-.02c-.47-.27-.92-.56-1.36-.88-.19-.13-.36-.27-.55-.41-.25-.19-.49-.36-.74-.55-.23-.2-.45-.41-.67-.63-.17-.14-.34-.3-.52-.45-.23-.23-.47-.49-.7-.74-.14-.16-.27-.3-.41-.44-.23-.28-.45-.55-.67-.83-.13-.16-.25-.31-.36-.47-.22-.28-.42-.58-.61-.88-.13-.17-.25-.34-.36-.53-.19-.28-.36-.58-.52-.88-.13-.2-.25-.42-.38-.64-.14-.27-.28-.55-.42-.83-.13-.27-.27-.53-.38-.8-.13-.25-.22-.52-.33-.77-.14-.31-.27-.63-.39-.95-.08-.23-.16-.47-.25-.7-.13-.36-.25-.74-.36-1.11-.06-.2-.13-.42-.19-.64-.11-.41-.23-.81-.33-1.24-.05-.2-.09-.41-.14-.61-.11-.44-.2-.88-.28-1.33-.05-.22-.08-.42-.11-.64-.08-.45-.16-.91-.22-1.38-.03-.25-.06-.5-.09-.75-.05-.44-.11-.88-.14-1.33-.03-.34-.05-.69-.08-1.03-.02-.38-.05-.74-.06-1.11-.03-.66-.05-1.31-.05-1.99,0-.09-.02-.17-.02-.25,0-.09.02-.17.02-.27,0-.67.02-1.35.05-2.03.02-.39.05-.8.06-1.19.03-.38.05-.75.08-1.13.03-.5.09-1,.14-1.49.03-.3.06-.58.09-.86.06-.55.14-1.1.22-1.63.03-.27.06-.52.11-.77.08-.55.17-1.11.28-1.66.05-.27.09-.52.14-.78.09-.53.22-1.08.33-1.63.06-.28.13-.56.19-.84.11-.52.23-1.02.36-1.53.09-.33.17-.66.25-.99.13-.47.25-.92.39-1.39.11-.39.2-.77.33-1.16.11-.41.25-.81.38-1.22.14-.45.28-.89.42-1.33.13-.36.25-.72.38-1.08.16-.49.33-.97.52-1.47.11-.31.23-.63.36-.95.19-.52.39-1.03.61-1.56.11-.3.23-.59.36-.88.22-.55.44-1.08.67-1.63.14-.3.27-.59.41-.89.23-.53.47-1.05.7-1.56.17-.34.34-.7.52-1.05.22-.47.44-.94.67-1.41.25-.45.49-.92.74-1.39.19-.34.36-.69.55-1.03.44-.83.89-1.64,1.38-2.47l106.92-185.19c7.76-13.46,17.95-23.83,28.15-29.72,10.19-5.88,20.37-7.28,28.15-2.79l68.88,39.76c56.71-71.28,94.84-164.52,94.84-245.84,0-25.38,17.82-56.27,39.81-68.96,6.38-3.69,12.42-5.45,17.78-5.45,3.87,0,7.37.92,10.39,2.66l71.28,41.17c.06.03.13.08.19.13Z"/>
    <polygon class="cls-2" points="564.97 1031.04 564.97 1031.03 458.05 969.31 529.33 1010.44 529.34 1010.44 636.25 1072.17 564.97 1031.04"/>
    <path class="cls-2" d="M935.91,475.67c0,1.6-.02,3.21-.03,4.82-.03,2.82-.11,5.63-.22,8.47-.02,1-.06,2.02-.11,3.02-.27,6.46-.7,12.96-1.3,19.5-.09.91-.17,1.83-.27,2.75-.08.86-.17,1.72-.27,2.58-.14,1.42-.3,2.86-.47,4.29-.19,1.71-.39,3.41-.61,5.12-.23,1.92-.49,3.85-.75,5.76-.19,1.28-.38,2.58-.56,3.87-.59,4.05-1.25,8.11-1.96,12.17-.22,1.28-.45,2.57-.69,3.83-.02.14-.05.28-.08.42-.3,1.64-.61,3.3-.94,4.94-.33,1.72-.67,3.46-1.03,5.2-.05.23-.09.47-.14.7-.31,1.49-.63,2.99-.95,4.49-.38,1.74-.75,3.47-1.16,5.21-.36,1.58-.72,3.18-1.11,4.77-1.2,5.1-2.49,10.19-3.86,15.29-.36,1.35-.72,2.69-1.1,4.04-.23.86-.47,1.71-.72,2.55-.77,2.75-1.56,5.49-2.38,8.23-.22.74-.44,1.49-.67,2.22-.86,2.85-1.74,5.68-2.64,8.51-.34,1.08-.69,2.16-1.05,3.24-2.43,7.43-5.01,14.87-7.75,22.25-.41,1.1-.81,2.21-1.24,3.3-3.08,8.17-6.34,16.32-9.8,24.41-.67,1.6-1.36,3.19-2.05,4.77-.17.42-.36.83-.53,1.22-1.22,2.8-2.46,5.59-3.72,8.36-.16.34-.31.69-.47,1.02-.78,1.71-1.56,3.41-2.36,5.1-.78,1.69-1.58,3.4-2.39,5.09-.86,1.8-1.72,3.6-2.6,5.38-1.36,2.75-2.72,5.49-4.1,8.23-.25.52-.52,1.03-.78,1.53-.85,1.67-1.71,3.33-2.58,5.01-.86,1.67-1.74,3.33-2.61,4.99-2.64,4.99-5.37,9.94-8.14,14.87-2.77,4.91-5.6,9.8-8.5,14.65-2.89,4.85-5.85,9.67-8.87,14.43-.11.2-.23.39-.36.58-.89,1.39-1.78,2.79-2.68,4.18-2.03,3.16-4.1,6.29-6.18,9.42-1.05,1.56-2.08,3.11-3.15,4.66-3.18,4.65-6.4,9.25-9.67,13.8-2.75,3.83-5.55,7.64-8.39,11.41-1.41,1.88-2.85,3.74-4.27,5.6-2.71,3.52-5.45,6.99-8.22,10.44-.16.2-.33.41-.5.61-1.24,1.53-2.47,3.05-3.71,4.57-1.72,2.1-3.46,4.16-5.21,6.23-1.5,1.78-3.02,3.55-4.54,5.3-1.16,1.35-2.32,2.66-3.47,3.99-.42.49-.86.99-1.31,1.47-1.46,1.66-2.94,3.3-4.41,4.93-.08.09-.16.19-.23.27-1.36,1.49-2.71,2.96-4.07,4.43-1.69,1.82-3.4,3.63-5.1,5.41-1.5,1.58-3.02,3.16-4.54,4.71-5.07,5.21-10.23,10.3-15.44,15.23-1.17,1.1-2.35,2.21-3.52,3.29-.5.49-1,.94-1.52,1.41-1.41,1.3-2.8,2.58-4.22,3.85-1.66,1.5-3.33,2.99-5.01,4.46-.14.13-.3.27-.44.39-1.53,1.33-3.07,2.66-4.62,3.97-1.69,1.44-3.38,2.86-5.09,4.29-2.24,1.86-4.48,3.69-6.74,5.49-2.89,2.32-5.79,4.57-8.72,6.79-1.56,1.19-3.13,2.36-4.69,3.52-.17.14-.36.27-.53.39-1.58,1.16-3.16,2.32-4.74,3.44-.5.38-1,.74-1.52,1.08-1.42,1.02-2.85,2.02-4.29,3-1.71,1.19-3.41,2.35-5.13,3.51-.06.05-.14.09-.22.14-1.77,1.17-3.54,2.33-5.3,3.47-1.78,1.16-3.57,2.3-5.37,3.41-1.27.8-2.54,1.58-3.82,2.35-.67.41-1.33.81-2,1.2-1.66,1-3.32,1.97-4.99,2.94l-10.83,6.24,38.98,22.5c15.54,8.98,15.54,38.09,0,65.02-1.36,2.36-2.8,4.62-4.29,6.78-.33.47-.66.94-.99,1.39-.42.59-.86,1.17-1.3,1.75-.78,1.03-1.56,2.03-2.38,3.02-.95,1.16-1.92,2.28-2.91,3.36-.44.47-.88.94-1.31,1.39-.47.5-.95.99-1.44,1.47-.61.61-1.24,1.22-1.86,1.8-.85.78-1.71,1.55-2.57,2.27-.5.42-1,.84-1.5,1.24-3.02,2.43-6.1,4.48-9.17,6.1-.5.27-.99.53-1.49.77-.5.25-1.02.49-1.52.7-.5.23-1.02.45-1.52.64-2.07.83-4.13,1.46-6.13,1.88-.44.09-.88.17-1.3.23-.36.06-.72.11-1.08.16-.22.03-.44.05-.64.06-.39.05-.78.08-1.16.09-.47.03-.94.05-1.39.05-3.74,0-7.26-.86-10.37-2.66l-106.91-61.73h-.02c-.47-.27-.92-.56-1.36-.88-.19-.13-.36-.27-.55-.41-.23-.19-.49-.36-.72-.56-.23-.19-.47-.39-.69-.61-.17-.14-.34-.3-.5-.45-.25-.23-.49-.49-.72-.75-.13-.14-.27-.28-.41-.42-.22-.28-.45-.56-.67-.83-.13-.16-.25-.31-.36-.47-.22-.28-.41-.58-.61-.88-.13-.17-.25-.34-.36-.53-.17-.28-.34-.58-.52-.88-.13-.2-.25-.42-.38-.64-.14-.28-.28-.55-.42-.83-.13-.27-.25-.53-.38-.8-.11-.25-.22-.52-.33-.77-.13-.31-.27-.64-.39-.95-.08-.23-.16-.47-.23-.7-.13-.36-.25-.74-.38-1.11-.06-.2-.13-.42-.19-.64-.11-.41-.22-.81-.33-1.24-.05-.2-.09-.41-.14-.61-.09-.44-.2-.88-.28-1.33-.05-.22-.08-.42-.11-.64-.08-.45-.16-.91-.22-1.38-.03-.25-.06-.5-.09-.75-.05-.44-.09-.88-.14-1.33-.03-.34-.05-.69-.08-1.03-.02-.38-.05-.74-.06-1.11-.03-.66-.05-1.31-.05-1.99v-.52c0-.67.02-1.35.05-2.03.02-.39.05-.8.06-1.19.03-.38.05-.75.08-1.13.05-.5.09-1,.14-1.49.03-.3.06-.58.09-.86.06-.55.14-1.1.22-1.63.03-.27.06-.52.11-.77.08-.55.19-1.11.28-1.66.05-.27.09-.52.14-.78.11-.53.22-1.08.33-1.63.06-.28.13-.56.19-.84.13-.52.25-1.02.38-1.53.08-.33.16-.66.23-.99.13-.47.27-.92.39-1.39.11-.39.22-.77.33-1.16.13-.41.25-.81.38-1.22.14-.44.28-.89.42-1.33.13-.36.25-.72.38-1.08l.52-1.46c.11-.33.23-.64.36-.95.2-.53.39-1.05.61-1.58.11-.3.23-.59.36-.88.22-.55.45-1.08.67-1.61.14-.31.28-.61.41-.91.23-.52.47-1.05.72-1.56.16-.34.33-.7.5-1.05.22-.47.45-.94.69-1.39.23-.47.49-.94.72-1.41.19-.34.36-.69.55-1.03.44-.83.91-1.64,1.38-2.46l106.91-185.19c7.78-13.46,17.96-23.83,28.17-29.72,10.19-5.88,20.37-7.28,28.15-2.79,15.54,8.97,15.54,38.09,0,65l-38.98,67.5,10.83-6.24c105.8-61.09,191.86-210.17,191.86-332.33,0-25.4,17.82-56.27,39.82-68.96,11.09-6.4,21.12-6.96,28.34-2.66.38.2.74.44,1.1.69.5.34,1,.72,1.47,1.14.23.19.47.39.69.59.19.17.38.34.55.53.3.28.59.59.86.92.3.33.59.67.86,1.03.16.19.3.38.42.56.63.84,1.2,1.77,1.72,2.75.23.41.44.84.66,1.28,0,.02.02.03.03.06.22.49.44.99.64,1.5.06.14.11.3.17.47.14.36.27.72.39,1.1.09.28.19.58.27.89.16.45.28.92.41,1.41.16.63.3,1.25.42,1.91.11.53.2,1.06.28,1.61.13.77.22,1.56.3,2.36.05.38.08.77.09,1.16.03.17.03.36.05.55.03.45.05.91.06,1.38.02.56.03,1.14.03,1.74Z"/>
    <path class="cls-2" d="M811.93,810.32c2.83-3.77,5.63-7.57,8.39-11.41-2.74,3.85-5.54,7.64-8.39,11.41Z"/>
    <path class="cls-2" d="M820.32,798.91c3.27-4.55,6.49-9.15,9.67-13.8-3.16,4.66-6.38,9.26-9.67,13.8Z"/>
    <path class="cls-2" d="M851.22,751.84c2.89-4.85,5.73-9.73,8.5-14.65-2.77,4.91-5.6,9.81-8.5,14.65Z"/>
    <path class="cls-2" d="M859.72,737.19c2.77-4.93,5.49-9.87,8.14-14.87-2.63,4.99-5.35,9.94-8.14,14.87Z"/>
  </g>
  <g>
    <path class="cls-1" d="M458.74,328.46c-15.54,26.93-15.54,56.04,0,65.02l-68.88-39.76c28.49-35.8,61.67-66.08,97.03-86.5l10.81-6.24-38.96,67.49Z"/>
    <path class="cls-1" d="M497.7,169.02l-10.81,6.24c-149.7,86.44-271.49,297.39-271.49,470.25,0,12.38,4.24,21.17,11.13,25.46l-70.76-40.83-.02-.02c-7.2-4.15-11.66-13.08-11.66-25.77,0-172.86,121.8-383.83,271.51-470.27l10.81-6.24,32.11,18.54c.06.05.14.09.22.14l38.96,22.49Z"/>
    <path class="cls-1" d="M621.96,110.73l-106.92-61.72c-15.54-8.98-40.75,5.57-56.3,32.5-15.46,26.8-15.54,55.75-.22,64.88l-32.11-18.54-38.96-22.5c-15.54-8.98-15.54-38.09,0-65.02,15.55-26.93,40.76-41.48,56.32-32.5l106.92,61.73.02.02,71.26,41.15Z"/>
    <path class="cls-1" d="M497.7,169.02l-38.96-22.49c-.08-.05-.16-.09-.22-.14l39.18,22.63Z"/>
    <path class="cls-1" d="M633.64,136.27v.52c-.02.67-.02,1.35-.05,2.03-.02.39-.05.78-.08,1.19-.02.38-.03.75-.06,1.13-.05.5-.09.99-.16,1.49-.03.28-.05.58-.08.86-.06.55-.14,1.08-.22,1.63-.05.25-.08.5-.11.77-.09.55-.19,1.11-.28,1.66-.05.25-.09.52-.14.77-.11.55-.22,1.1-.34,1.63-.06.28-.11.58-.17.86-.13.5-.25,1.02-.38,1.53-.08.33-.16.66-.25.99-.13.45-.25.92-.38,1.39-.11.38-.22.77-.33,1.14-.13.42-.25.83-.38,1.24-.14.44-.28.88-.44,1.33-.11.36-.23.7-.36,1.06-.17.5-.34.99-.52,1.47-.13.33-.25.64-.36.95-.2.53-.41,1.05-.61,1.58-.13.28-.25.58-.36.88-.23.53-.45,1.08-.69,1.61-.13.3-.27.61-.41.91-.22.52-.45,1.03-.7,1.56-.16.34-.33.69-.5,1.05-.23.45-.45.92-.69,1.39-.23.47-.49.94-.72,1.39-.19.34-.36.7-.55,1.05-.45.81-.91,1.64-1.38,2.46l-106.92,185.19c-.49.84-.99,1.67-1.49,2.49s-1.02,1.63-1.53,2.41c-.45.69-.92,1.38-1.39,2.05-1.13,1.63-2.3,3.21-3.51,4.73-.86,1.08-1.74,2.13-2.63,3.15-.03.05-.08.09-.13.14-.44.5-.88.99-1.31,1.47-1.46,1.6-2.94,3.1-4.46,4.51-.28.27-.58.53-.86.78-2.43,2.21-4.91,4.15-7.4,5.82-.38.27-.75.52-1.13.75-.77.5-1.55.97-2.32,1.42-10.19,5.88-20.37,7.28-28.15,2.79-15.54-8.98-15.54-38.09,0-65.02l38.96-67.49-10.81,6.24c-35.36,20.42-68.54,50.7-97.03,86.5-5.45,6.85-10.73,13.93-15.84,21.16-1.39,1.97-2.77,3.97-4.13,5.98-.75,1.1-1.5,2.21-2.22,3.3-.75,1.1-1.49,2.21-2.21,3.32-4.37,6.67-8.58,13.44-12.61,20.33-.67,1.16-1.35,2.3-2,3.46-.67,1.16-1.33,2.32-1.97,3.47-.67,1.16-1.31,2.32-1.96,3.47-1.28,2.33-2.55,4.68-3.8,7.03-.63,1.17-1.24,2.35-1.85,3.52-.63,1.19-1.24,2.38-1.83,3.55-.61,1.19-1.2,2.36-1.78,3.55-4.15,8.31-8.04,16.73-11.64,25.21-.52,1.19-1.02,2.38-1.5,3.57-.52,1.24-1.02,2.47-1.52,3.71-.45,1.11-.89,2.22-1.35,3.33-.39,1-.78,1.99-1.16,2.99-.39.99-.77,1.99-1.14,2.99-.39,1-.75,1.99-1.13,2.99-.38,1.02-.75,2.03-1.11,3.05-.81,2.21-1.58,4.43-2.35,6.65-.27.77-.53,1.53-.78,2.3-.33.95-.64,1.91-.95,2.85-1.33,4.07-2.6,8.12-3.79,12.21-.28.94-.56,1.89-.83,2.85-2.03,7.07-3.83,14.15-5.43,21.22l-.66,3c-.09.42-.19.84-.28,1.28-.16.74-.31,1.47-.45,2.21-.17.83-.34,1.66-.5,2.5-.19.92-.38,1.85-.53,2.77-.41,2.07-.77,4.13-1.13,6.2-.34,1.99-.66,3.97-.95,5.96-.16.97-.3,1.94-.44,2.91-.14,1-.28,2.02-.41,3.02-.22,1.64-.42,3.3-.61,4.94-.22,1.75-.41,3.51-.58,5.24-.09.95-.19,1.91-.27,2.85-.11,1.2-.2,2.41-.3,3.6-.05.45-.08.91-.09,1.36-.08.86-.14,1.74-.19,2.6-.08,1.2-.16,2.41-.2,3.61-.06,1.05-.11,2.1-.14,3.13-.05,1.03-.08,2.07-.11,3.08-.02.3-.02.58-.02.88-.03,1.03-.06,2.08-.06,3.11-.02,1.17-.03,2.35-.03,3.52,0,.67-.02,1.36-.05,2.05-.05,1.35-.14,2.72-.3,4.1-.03.42-.08.85-.14,1.27-.03.25-.06.49-.09.74-.06.52-.14,1.05-.23,1.58-.11.74-.25,1.49-.39,2.24-.34,1.74-.75,3.49-1.22,5.23-.14.56-.3,1.11-.47,1.67-.16.58-.33,1.14-.52,1.72-.38,1.2-.78,2.39-1.22,3.6-.36,1-.74,1.99-1.14,2.97,0,.02-.02.05-.03.06-.41,1-.83,2.02-1.28,3.02-.44.99-.89,1.97-1.39,2.96.02.02,0,.03-.02.05-.33.69-.67,1.38-1.05,2.07-.22.45-.45.91-.7,1.36-.45.86-.92,1.72-1.42,2.57-.52.89-1.05,1.78-1.6,2.64-.5.83-1.02,1.63-1.55,2.43-.72,1.11-1.49,2.21-2.25,3.27-.36.5-.72.99-1.1,1.47-.33.45-.67.89-1.02,1.33-.49.63-.99,1.25-1.5,1.86-.66.81-1.33,1.6-2.02,2.36-.53.61-1.08,1.2-1.63,1.78-.56.61-1.14,1.2-1.72,1.78-.05.05-.08.09-.13.13-.59.59-1.2,1.19-1.82,1.75-.53.5-1.08,1-1.63,1.47-1.86,1.67-3.79,3.19-5.76,4.57-.36.25-.7.5-1.06.74-.17.13-.34.25-.53.36-.36.23-.72.47-1.08.7-.58.36-1.17.72-1.77,1.06-.41.23-.8.45-1.19.67-1.6.86-3.15,1.6-4.68,2.22-.77.31-1.53.59-2.28.85-3.38,1.14-6.62,1.69-9.62,1.69-.47,0-.94-.02-1.41-.05-.02.02-.05,0-.08,0-.41-.03-.81-.06-1.2-.11-.09,0-.17-.02-.25-.03-.34-.05-.69-.09-1.03-.16-.53-.09-1.06-.2-1.58-.34-.42-.11-.83-.22-1.22-.36-1.14-.36-2.22-.84-3.25-1.42-.14-.08-.3-.14-.44-.23-.14-.08-.3-.16-.44-.25-6.89-4.29-11.13-13.08-11.13-25.46,0-172.86,121.79-383.81,271.49-470.25l10.81-6.24-39.18-22.63c-15.32-9.12-15.24-38.07.22-64.88,15.55-26.93,40.76-41.48,56.3-32.5l106.92,61.72c.47.28.92.58,1.38.88.19.14.36.28.55.42.23.17.49.36.72.55.23.2.45.41.69.61.17.16.34.31.5.47.25.23.49.49.7.74.14.16.28.3.41.44.23.27.45.55.69.83.11.16.23.31.36.47.2.28.41.58.61.86.11.19.23.36.36.55.17.28.34.58.52.86.13.22.25.44.36.66.16.27.3.55.42.83.14.27.27.53.39.8.11.25.22.52.33.77.13.31.25.63.38.95.09.23.17.47.25.7.13.36.25.72.38,1.1.06.22.11.44.17.64.13.41.23.83.34,1.25.05.19.09.41.14.61.09.44.19.88.28,1.33.03.2.06.42.11.64.08.45.16.91.22,1.38.03.25.05.5.08.75.06.44.11.88.16,1.31.03.34.05.7.06,1.05.03.38.06.74.08,1.11.03.66.03,1.31.05,1.99Z"/>
    <path class="cls-1" d="M497.7,169.02l-38.96-22.49c-.08-.05-.16-.09-.22-.14l39.18,22.63Z"/>
  </g>
  <circle class="cls-1" cx="540" cy="540" r="84.05"/>
</svg>