<?xml version="1.0" encoding="UTF-8"?>
<svg id="ARTWORK" xmlns="http://www.w3.org/2000/svg" viewBox="0 0 1080 1080">
  <defs>
    <style>
      .cls-1 {
        fill: #fff;
      }

      .cls-1, .cls-2 {
        stroke: #000;
        stroke-linecap: round;
        stroke-linejoin: round;
        stroke-width: 4px;
      }

      .cls-2 {
        fill: #00e676;
      }
    </style>
  </defs>
  <g>
    <polygon class="cls-2" points="606.41 99.09 772.43 3.25 938.45 99.09 772.43 194.94 606.41 99.09"/>
    <polygon class="cls-2" points="772.43 194.94 772.43 808.37 706.03 770.03 706.03 386.64 606.4 329.14 606.4 99.1 772.43 194.94"/>
    <polygon class="cls-2" points="938.45 99.09 772.43 194.94 772.43 808.38 938.45 712.53 938.45 99.09"/>
  </g>
  <g>
    <polygon class="cls-1" points="706.03 386.64 606.4 444.16 540 482.5 373.97 386.64 540 290.8 606.4 329.14 706.03 386.64"/>
    <polygon class="cls-1" points="540 482.5 540 942.56 473.6 904.23 473.6 750.86 373.97 693.36 373.97 386.64 540 482.5"/>
    <polygon class="cls-1" points="706.03 386.64 706.03 846.72 540 942.56 540 482.5 606.4 444.16 706.03 386.64"/>
  </g>
  <g>
    <polygon class="cls-1" points="473.6 750.86 373.97 808.39 307.57 846.72 141.56 750.86 307.57 655.02 373.97 693.36 473.6 750.86"/>
    <polygon class="cls-1" points="307.57 846.72 307.57 1076.75 141.56 980.9 141.56 750.86 307.57 846.72"/>
    <polygon class="cls-1" points="473.6 750.86 473.6 980.9 307.57 1076.75 307.57 846.72 373.97 808.39 473.6 750.86"/>
  </g>
</svg>