<?xml version="1.0" encoding="UTF-8"?>
<svg id="ARTWORK" xmlns="http://www.w3.org/2000/svg" viewBox="0 0 1080 1080">
  <defs>
    <style>
      .cls-1 {
        fill: #fff;
      }

      .cls-1, .cls-2 {
        stroke: #000;
        stroke-linecap: round;
        stroke-linejoin: round;
        stroke-width: 4px;
      }

      .cls-2 {
        fill: #00e676;
      }
    </style>
  </defs>
  <g>
    <polygon class="cls-1" points="540 389.7 874.73 196.45 540 3.2 205.27 196.45 540 389.7"/>
    <polygon class="cls-1" points="874.73 196.45 874.73 883.55 540 1076.8 540 389.7 874.73 196.45"/>
    <polygon class="cls-1" points="205.27 196.45 205.27 883.55 540 1076.8 540 389.7 205.27 196.45"/>
  </g>
  <path class="cls-1" d="M618.89,150.9c-43.57-25.16-114.22-25.16-157.79,0-43.57,25.16-43.57,65.94,0,91.1,43.57,25.16,114.22,25.16,157.79,0,43.57-25.16,43.57-65.94,0-91.1Z"/>
  <polyline class="cls-1" points="490.58 196.45 523.53 215.47 589.42 177.42"/>
  <g>
    <line class="cls-1" x1="540" y1="389.7" x2="874.73" y2="196.45"/>
    <line class="cls-1" x1="540" y1="389.7" x2="205.27" y2="196.45"/>
  </g>
  <g>
    <line class="cls-1" x1="540" y1="561.47" x2="874.73" y2="368.22"/>
    <polygon class="cls-2" points="205.27 368.22 540 561.47 540 733.25 205.27 540 205.27 368.22"/>
    <polygon class="cls-2" points="874.73 368.22 540 561.47 540 733.25 874.73 540 874.73 368.22"/>
  </g>
  <g>
    <line class="cls-1" x1="540" y1="733.25" x2="874.73" y2="540"/>
    <line class="cls-1" x1="540" y1="733.25" x2="205.27" y2="540"/>
  </g>
  <g>
    <line class="cls-1" x1="540" y1="905.03" x2="874.73" y2="711.78"/>
    <line class="cls-1" x1="540" y1="905.03" x2="205.27" y2="711.78"/>
  </g>
</svg>