<?xml version="1.0" encoding="UTF-8"?>
<svg id="ARTWORK" xmlns="http://www.w3.org/2000/svg" viewBox="0 0 1080 1080">
  <defs>
    <style>
      .cls-1 {
        fill: #fff;
      }

      .cls-1, .cls-2 {
        stroke: #000;
        stroke-linecap: round;
        stroke-linejoin: round;
        stroke-width: 4px;
      }

      .cls-2 {
        fill: #00e676;
      }
    </style>
  </defs>
  <g>
    <path class="cls-1" d="M137.64,728.67l600.63,346.76,85.8-49.54-.02-99.08,85.82,49.55,85.8-49.54-.09-544.77L395.07,35.34c-27.54-15.9-61.7-25.64-97.36-29.21-56.37-5.66-116.46,4.08-159.99,29.21-35.53,20.51-53.3,47.39-53.3,74.28,0,0,0,.01,0,.02l-.09,544.69v.02s0,.02,0,.02c0,26.89,17.77,53.79,53.31,74.31Z"/>
    <path class="cls-1" d="M824.01,481.1L223.5,134.4c-23.69-13.68-23.69-35.85,0-49.53h0c23.69-13.68,62.1-13.68,85.78,0l600.51,346.69,85.79-49.53L395.07,35.34c-71.07-41.03-186.29-41.03-257.35,0h0c-71.07,41.03-71.07,107.56,0,148.59l600.51,346.69,85.79-49.53Z"/>
    <polygon class="cls-1" points="738.22 530.62 738.26 1075.43 824.07 1025.89 824.01 481.1 738.22 530.62"/>
    <polygon class="cls-1" points="909.8 431.57 995.59 382.04 995.68 926.81 909.87 976.35 909.8 431.57"/>
  </g>
  <g>
    <path class="cls-2" d="M732.42,428.21c14.6-20.69,22.96-49.7,22.96-85.78,0-109.37-76.79-242.36-171.5-297.06-47.37-27.35-90.25-29.93-121.28-12l-85.77,49.53h-.02c-15.51,8.96-28.07,23.05-36.75,41.73-8.67,18.68-13.46,41.97-13.46,69.3l405.82,234.28Z"/>
    <path class="cls-2" d="M326.6,193.93c0-109.37,76.77-153.7,171.48-99.01,94.73,54.68,171.5,187.65,171.5,297.02l-342.97-198.01Z"/>
  </g>
</svg>